<svg xmlns="http://www.w3.org/2000/svg" xmlns:xlink="http://www.w3.org/1999/xlink" width="271.1814880371094" height="271.18121337890625" viewBox="0 0 271.1814880371094 271.18121337890625" fill="none">
<g  clip-path="url(#clip-path-wJKCJV27RY2ODT-KyNMrO)">
<path d="M135.591 0C210.463 0 271.182 60.7186 271.182 135.59C271.182 210.462 210.463 271.181 135.591 271.181C60.7186 271.181 0 210.463 0 135.59C0 60.718 60.7187 0 135.591 0ZM135.591 4.6202C63.2698 4.6202 4.6202 63.2698 4.6202 135.59C4.6202 207.911 63.2698 266.561 135.591 266.561C207.912 266.561 266.561 207.911 266.561 135.59C266.561 63.2695 207.911 4.6202 135.591 4.6202Z" fill-rule="evenodd"  fill="#0A3994" >
</path>
<path d="M146.747 43.7437C191.446 47.5049 227.166 82.8533 231.497 127.386C231.666 129.128 230.598 131.234 228.252 130.881C226.769 130.658 226.292 129.409 225.888 128.372C221.986 86.1157 188.005 52.5676 145.556 49.3407C145.606 49.3327 143.294 48.8094 143.442 46.3226C143.516 45.0677 144.632 43.5668 146.747 43.7437ZM231.568 144.89C227.563 189.829 192.097 225.491 147.067 229.193C145.463 229.325 143.419 228.003 143.691 226.155C143.917 224.612 145.173 223.832 146.061 223.632C188.388 220.169 222.185 186.55 225.919 144.301C226.023 143.128 226.986 142.03 228.223 141.901C230.115 141.702 231.72 143.174 231.568 144.89ZM129.408 229.132C85.1799 224.679 50.0802 189.416 46.1185 145.046C46.0117 143.848 47.2291 142.371 48.4313 142.245C50.8708 141.954 51.4431 143.797 51.7595 144.238C55.4142 185.915 88.3187 219.207 129.82 223.464C130.91 223.655 132.515 224.366 132.689 225.967C132.926 228.156 131.193 229.311 129.408 229.132ZM46.1253 128.028C49.9172 86.0604 81.5669 52.124 122.435 44.8548C124.57 44.475 126.731 44.1677 128.914 43.9364C130.511 43.7672 132.493 44.2905 132.728 46.4162C132.911 47.7575 131.426 49.3931 130.142 49.5181C130.009 49.5311 129.876 49.5448 129.744 49.5581C88.4066 53.8347 55.6123 86.919 51.7918 128.389C51.6501 129.929 50.3421 131.4 48.5175 131.125C46.9102 130.883 45.9938 129.489 46.1253 128.028Z" fill-rule="evenodd"  fill="#0A3994" >
</path>
<path d="M48.6144 133.692C50.3733 133.692 51.7994 135.107 51.7994 136.853C51.7994 138.599 50.3733 140.014 48.6144 140.014C46.8555 140.014 45.4297 138.598 45.4297 136.853C45.4297 135.107 46.8558 133.692 48.6144 133.692Z" fill-rule="evenodd"  fill="#0A3994" >
</path>
<ellipse cx="229.18701416015625" cy="136.40540166015626" rx="3.185" ry="3.1612"   fill="#0A3994" >
</ellipse>
<path d="M72.3937 220.617L75.2675 222.781L71.007 228.436C70.3624 229.292 70.037 229.875 70.0288 230.189C70.0194 230.499 70.2014 230.796 70.571 231.074C70.9427 231.354 71.2814 231.443 71.5824 231.34C71.8849 231.236 72.3501 230.764 72.9827 229.924L77.2427 224.268L80.062 226.392L75.7221 232.154C75.2312 232.806 74.8272 233.263 74.5078 233.531C74.1875 233.794 73.8518 233.981 73.4975 234.087C72.9031 234.276 72.2605 234.259 71.5677 234.035C70.8777 233.813 70.0948 233.371 69.2132 232.707C68.4054 232.098 67.8107 231.513 67.4328 230.949C67.0578 230.387 66.8644 229.797 66.8605 229.179C66.8528 228.741 66.9702 228.271 67.2086 227.77C67.4492 227.271 67.9572 226.506 68.7347 225.474L72.3937 220.616L72.3937 220.617Z" fill-rule="evenodd"  fill="#0A3994" >
</path>
<path d="M67.5652 221.193L65.2133 218.932L65.442 218.694C65.8726 218.246 66.1056 217.862 66.1396 217.54C66.1734 217.222 66.0214 216.898 65.6858 216.575C65.4157 216.316 65.1339 216.18 64.8442 216.169C64.5528 216.157 64.2923 216.272 64.0615 216.512C63.6814 216.907 63.7007 217.652 64.1168 218.753C64.1795 218.935 64.2288 219.074 64.2637 219.169L64.3297 219.344C64.8643 220.848 65.133 221.854 65.1364 222.357C65.1251 222.728 65.0483 223.081 64.9068 223.418C64.764 223.757 64.5522 224.074 64.2713 224.367C63.587 225.078 62.7718 225.371 61.8261 225.24C60.8805 225.113 59.9198 224.579 58.947 223.644C57.8863 222.624 57.2697 221.649 57.0937 220.711C56.9199 219.777 57.1943 218.932 57.92 218.177C57.9506 218.145 57.9948 218.104 58.0552 218.051C58.1145 217.999 58.1584 217.959 58.1896 217.926L60.4907 220.138L60.3935 220.239C60.0517 220.595 59.8671 220.939 59.8399 221.264C59.8138 221.592 59.9414 221.893 60.2288 222.169C60.4692 222.4 60.7289 222.525 60.9979 222.537C61.27 222.552 61.5075 222.45 61.7105 222.239C62.0424 221.894 61.9764 221.125 61.5126 219.933C61.433 219.713 61.3718 219.544 61.3278 219.428C61.2878 219.334 61.2365 219.202 61.1747 219.028C60.6852 217.74 60.4528 216.833 60.4774 216.3C60.5024 215.963 60.584 215.635 60.7303 215.317C60.8768 214.999 61.084 214.701 61.3508 214.424C62.134 213.609 63.0224 213.254 64.0151 213.361C65.0103 213.47 66.037 214.033 67.0952 215.051C68.2072 216.12 68.8385 217.133 68.9933 218.091C69.1444 219.05 68.8215 219.945 68.0215 220.777C67.9714 220.83 67.9175 220.885 67.8594 220.941C67.8013 220.996 67.7015 221.081 67.5652 221.193Z" fill-rule="evenodd"  fill="#0A3994" >
</path>
<path d="M57.4296 213.197L52.5855 217.057L51.0568 215.139L51.508 214.576C51.0502 214.487 50.6284 214.319 50.2415 214.075C49.8569 213.83 49.4929 213.494 49.1522 213.066C48.7675 212.583 48.4767 212.081 48.2856 211.565C48.0929 211.05 48.0027 210.539 48.0118 210.036C48.0226 209.41 48.2272 208.811 48.628 208.241C49.0297 207.667 49.8557 206.884 51.1052 205.888C51.9964 205.178 52.7556 204.663 53.3766 204.346C53.9994 204.026 54.5335 203.872 54.9808 203.887C55.6313 203.908 56.2683 204.112 56.897 204.5C57.5243 204.888 58.1377 205.457 58.733 206.203C59.6661 207.376 60.1319 208.447 60.131 209.413C60.1322 210.383 59.6625 211.241 58.7262 211.987C58.6913 212.015 58.638 212.053 58.5609 212.105C58.4867 212.157 58.4274 212.199 58.3863 212.232L56.2793 209.587L56.3887 209.5C56.8961 209.096 57.2017 208.731 57.3038 208.413C57.4032 208.092 57.323 207.767 57.0605 207.437C56.747 207.044 56.3998 206.881 56.0137 206.947C55.6296 207.016 54.9456 207.44 53.9626 208.224L53.0909 208.918L52.4817 209.404C51.5004 210.185 50.934 210.749 50.7889 211.093C50.6438 211.437 50.7203 211.795 51.0213 212.172C51.3198 212.547 51.6523 212.731 52.0123 212.721C52.3743 212.713 52.8077 212.505 53.3112 212.104C53.4268 212.012 53.5124 211.939 53.5714 211.888C53.6301 211.837 53.6884 211.786 53.7409 211.735L52.8726 210.645L54.4155 209.415L57.4296 213.197Z" fill-rule="evenodd"  fill="#0A3994" >
</path>
<path d="M38.2872 198.474L47.7045 192.227L49.7545 195.317L45.5819 201.637C46.4918 200.888 47.2881 200.254 47.9687 199.739C48.6439 199.221 49.2304 198.8 49.7182 198.476L51.1982 197.494L52.9514 200.138L43.5345 206.385L41.4808 203.288L45.8195 196.835C45.1139 197.461 44.4146 198.047 43.721 198.587C43.0276 199.132 42.3365 199.631 41.648 200.088L40.0575 201.143L38.2872 198.474Z" fill-rule="evenodd"  fill="#0A3994" >
</path>
<path d="M40.0753 175.325L29.342 179.184L30.4563 182.532L41.1894 178.673L40.0753 175.325Z" fill-rule="evenodd"  fill="#0A3994" >
</path>
<path d="M28.686 165.617L29.7884 168.699C28.8949 169.019 28.3691 169.267 28.2095 169.446C28.0502 169.625 28.0224 169.861 28.1273 170.153C28.2158 170.401 28.3408 170.55 28.5035 170.603C28.6636 170.656 28.9528 170.611 29.3683 170.462L37.3606 167.604L38.5597 170.956L31.5521 173.462C30.7627 173.744 30.1598 173.917 29.749 173.982C29.3374 174.042 28.9754 174.028 28.6619 173.94C28.173 173.792 27.7293 173.474 27.3313 172.986C26.9345 172.501 26.5887 171.846 26.2956 171.027C25.774 169.568 25.6538 168.436 25.937 167.629C26.2199 166.821 26.9543 166.204 28.1361 165.781C28.2844 165.728 28.3955 165.689 28.4697 165.666C28.544 165.643 28.618 165.627 28.686 165.617Z" fill-rule="evenodd"  fill="#0A3994" >
</path>
<path d="M117.552 239.479L115.754 250.635L123.933 251.953L124.282 249.787L119.598 249.032L119.928 246.982L124.253 247.679L124.613 245.441L120.289 244.745L120.681 242.309L125.365 243.063L125.73 240.796L117.552 239.479Z" fill-rule="evenodd"  fill="#0A3994" >
</path>
<path d="M109.789 242.116L113.182 242.972C113.205 242.908 113.23 242.837 113.252 242.763C113.275 242.688 113.303 242.574 113.342 242.421C113.679 241.083 113.533 239.992 112.908 239.145C112.283 238.298 111.154 237.67 109.528 237.259C108.569 237.018 107.718 236.929 106.974 236.992C106.231 237.058 105.586 237.278 105.044 237.651C104.664 237.917 104.334 238.339 104.054 238.914C103.773 239.489 103.465 240.435 103.133 241.753C102.8 243.072 102.623 244.05 102.597 244.689C102.572 245.329 102.661 245.858 102.87 246.271C103.166 246.853 103.623 247.345 104.239 247.756C104.856 248.168 105.635 248.49 106.574 248.727C108.19 249.134 109.484 249.107 110.461 248.643C111.437 248.181 112.094 247.285 112.429 245.957L112.456 245.85L109.101 245.012C108.899 245.754 108.653 246.247 108.361 246.494C108.067 246.74 107.665 246.799 107.152 246.669C106.598 246.53 106.262 246.249 106.151 245.831C106.038 245.412 106.182 244.416 106.579 242.841L106.631 242.635C107.057 240.942 107.42 239.931 107.722 239.602C108.021 239.272 108.449 239.176 109.006 239.316C109.526 239.447 109.851 239.676 109.99 240.005C110.126 240.337 110.101 240.878 109.911 241.633L109.789 242.116Z" fill-rule="evenodd"  fill="#0A3994" >
</path>
<path d="M250.446 172.176L245.805 170.987L238.63 172.759L239.581 169.053L243.409 168.515L240.315 166.189L241.275 162.446L246.711 167.453L251.353 168.643L250.446 172.176Z" fill-rule="evenodd"  fill="#0A3994" >
</path>
<path d="M244.678 186.275L236.354 182.58L235.199 185.183L233.194 184.293L237.014 175.688L239.019 176.578L237.803 179.317L246.127 183.012L244.678 186.275Z" fill-rule="evenodd"  fill="#0A3994" >
</path>
<rect x="228.48013305664062" y="190.9076690673828" width="3.5604000559767486" height="11.300300177663821" transform="rotate(-60.85160144265987 228.48013305664062 190.9076690673828)"   fill="#0A3994" >
</rect>
<path d="M229.24 195.981L227.598 198.8L227.312 198.634C226.776 198.321 226.347 198.185 226.026 198.229C225.71 198.271 225.431 198.495 225.197 198.897C225.008 199.222 224.943 199.527 225.001 199.811C225.057 200.097 225.23 200.323 225.518 200.49C225.992 200.767 226.711 200.572 227.683 199.908C227.846 199.803 227.968 199.723 228.053 199.667L228.207 199.562C229.542 198.687 230.456 198.188 230.943 198.066C231.308 197.989 231.669 197.981 232.03 198.039C232.392 198.097 232.751 198.228 233.102 198.432C233.954 198.929 234.432 199.652 234.527 200.602C234.627 201.551 234.335 202.61 233.656 203.777C232.915 205.048 232.113 205.878 231.244 206.27C230.377 206.659 229.492 206.592 228.587 206.066C228.548 206.043 228.498 206.009 228.432 205.964C228.368 205.919 228.318 205.885 228.279 205.862L229.885 203.104L230.007 203.175C230.433 203.423 230.81 203.522 231.133 203.471C231.458 203.418 231.72 203.224 231.921 202.88C232.088 202.591 232.148 202.309 232.096 202.045C232.046 201.777 231.892 201.571 231.638 201.423C231.225 201.182 230.493 201.427 229.444 202.16C229.25 202.289 229.099 202.389 228.998 202.458C228.915 202.52 228.799 202.601 228.645 202.702C227.509 203.482 226.682 203.921 226.159 204.023C225.825 204.079 225.488 204.077 225.144 204.009C224.8 203.942 224.462 203.812 224.129 203.618C223.152 203.049 222.598 202.27 222.467 201.28C222.338 200.287 222.643 199.156 223.382 197.887C224.158 196.555 224.994 195.702 225.889 195.326C226.783 194.952 227.73 195.055 228.728 195.635C228.791 195.672 228.858 195.711 228.925 195.754C228.993 195.798 229.099 195.875 229.24 195.981Z" fill-rule="evenodd"  fill="#0A3994" >
</path>
<path d="M222.425 218.092L213.362 211.342L215.754 208.13C216.536 207.079 217.143 206.34 217.568 205.921C217.995 205.498 218.408 205.204 218.804 205.04C219.277 204.85 219.731 204.784 220.17 204.841C220.607 204.902 221.04 205.09 221.469 205.409C221.989 205.796 222.336 206.244 222.506 206.754C222.676 207.263 222.681 207.86 222.526 208.548C223.472 207.88 224.506 207.931 225.628 208.692L225.658 208.714C225.775 208.793 225.944 208.91 226.164 209.066C227.201 209.804 228.009 210.053 228.591 209.812L226.106 213.15C225.861 213.084 225.624 212.992 225.392 212.875C225.161 212.753 224.926 212.607 224.691 212.433C224.546 212.325 224.374 212.188 224.177 212.025C223.978 211.859 223.847 211.754 223.786 211.707C223.231 211.294 222.78 211.11 222.431 211.153C222.081 211.199 221.716 211.475 221.339 211.981L220.902 212.568L224.527 215.269L222.425 218.092ZM219.237 211.328C219.273 211.28 219.321 211.219 219.381 211.146C219.442 211.073 219.487 211.018 219.515 210.98C219.956 210.387 220.18 209.902 220.187 209.524C220.193 209.146 219.987 208.803 219.567 208.49C219.177 208.2 218.811 208.117 218.465 208.242C218.119 208.367 217.724 208.725 217.283 209.318C217.255 209.356 217.214 209.415 217.162 209.493C217.109 209.572 217.065 209.636 217.029 209.684L219.237 211.328Z" fill-rule="evenodd"  fill="#0A3994" >
</path>
<path d="M204.625 218.304L212.016 226.852L218.283 221.433L216.848 219.774L213.259 222.877L211.901 221.306L215.214 218.441L213.731 216.727L210.418 219.592L208.805 217.726L212.394 214.622L210.891 212.885L204.625 218.304Z" fill-rule="evenodd"  fill="#0A3994" >
</path>
<path d="M206.318 230.337L202.456 219.184L199.404 221.389L201.814 226.972C201.922 227.221 202.071 227.542 202.262 227.939C202.455 228.334 202.67 228.757 202.905 229.209L202.798 229.113C201.965 228.259 201.416 227.714 201.149 227.471L196.575 223.433L193.528 225.635L202.953 232.767L206.318 230.336L206.318 230.337Z" fill-rule="evenodd"  fill="#0A3994" >
</path>
<rect x="187.57571411132812" y="229.30221557617188" width="3.560699977473371" height="11.300299928509103" transform="rotate(-29.846999242567477 187.57571411132812 229.30221557617188)"   fill="#0A3994" >
</rect>
<path d="M181.115 245.238L175.962 235.181L179.262 233.49L185.075 238.343C184.432 237.355 183.892 236.493 183.455 235.759C183.017 235.03 182.664 234.4 182.397 233.879L181.587 232.299L184.409 230.852L189.563 240.909L186.257 242.603L180.329 237.57C180.873 238.341 181.376 239.102 181.836 239.851C182.299 240.601 182.718 241.343 183.095 242.08L183.965 243.778L181.115 245.238Z" fill-rule="evenodd"  fill="#0A3994" >
</path>
<path d="M173.251 236.542L169.883 237.804L172.367 244.434C172.743 245.438 172.89 246.089 172.809 246.392C172.73 246.692 172.472 246.925 172.039 247.087C171.603 247.251 171.253 247.24 170.993 247.057C170.733 246.871 170.42 246.287 170.051 245.302L167.566 238.672L164.261 239.911L166.792 246.665C167.079 247.43 167.337 247.983 167.567 248.33C167.801 248.673 168.069 248.947 168.379 249.149C168.895 249.498 169.516 249.665 170.244 249.646C170.969 249.628 171.845 249.426 172.878 249.038C173.826 248.683 174.562 248.29 175.084 247.856C175.603 247.424 175.955 246.912 176.133 246.321C176.266 245.903 176.285 245.419 176.199 244.871C176.109 244.324 175.839 243.446 175.385 242.236L173.252 236.542L173.251 236.542Z" fill-rule="evenodd"  fill="#0A3994" >
</path>
<path d="M138.263 223.536C140.021 223.536 141.448 224.952 141.448 226.697C141.448 228.442 140.021 229.859 138.263 229.859C136.504 229.859 135.078 228.443 135.078 226.697C135.078 224.951 136.504 223.536 138.263 223.536Z" fill-rule="evenodd"  fill="#0A3994" >
</path>
<path d="M90.117 236.312C89.5821 237.562 89.2542 238.501 89.1289 239.128C89.0036 239.756 89.0093 240.293 89.1507 240.734C89.3548 241.363 89.7341 241.929 90.2868 242.429C90.8396 242.93 91.5709 243.373 92.4803 243.762C93.3928 244.152 94.2185 244.375 94.953 244.424C95.6877 244.474 96.3518 244.355 96.9483 244.068C97.3794 243.866 97.778 243.5 98.145 242.976C98.5124 242.451 98.9637 241.568 99.4963 240.323C100.027 239.081 100.354 238.145 100.48 237.515C100.606 236.886 100.596 236.344 100.443 235.893C100.243 235.271 99.8713 234.708 99.322 234.206C98.7724 233.707 98.0421 233.261 97.1362 232.874C96.2266 232.485 95.4 232.265 94.6556 232.211C93.9107 232.159 93.2405 232.276 92.6464 232.559C92.2297 232.762 91.8374 233.128 91.4703 233.652C91.1032 234.177 90.6517 235.062 90.117 236.312ZM96.5525 237.955L95.7509 239.83C95.2588 240.981 94.8549 241.651 94.5431 241.839C94.2284 242.025 93.8165 242.01 93.3015 241.79C92.7989 241.575 92.5086 241.284 92.4352 240.923C92.3587 240.562 92.5648 239.813 93.0512 238.676L93.8525 236.801C94.3333 235.677 94.7307 235.013 95.0482 234.812C95.3631 234.608 95.7781 234.617 96.2932 234.837C96.8048 235.056 97.0951 235.346 97.1682 235.707C97.245 236.069 97.039 236.818 96.5525 237.955Z" fill-rule="evenodd"  fill="#0A3994" >
</path>
<path d="M127.91 252.382L131.755 241.248L135.983 241.445L138.734 252.887L135.179 252.721L134.835 250.536L132.04 250.405L131.497 252.549L127.91 252.382Z" fill-rule="evenodd"  fill="#0A3994" >
</path>
<path d="M142.566 252.822L141.359 241.586L145.047 241.19L148.734 247.805C148.488 246.652 148.293 245.653 148.148 244.812C148.001 243.974 147.896 243.259 147.833 242.677L147.645 240.911L150.798 240.573L152.005 251.809L148.31 252.205L144.581 245.381C144.812 246.296 145.01 247.187 145.17 248.051C145.333 248.918 145.458 249.761 145.547 250.583L145.749 252.48L142.566 252.822Z" fill-rule="evenodd"  fill="#0A3994" >
</path>
<path d="M138.1 49.3123C139.854 49.3123 141.285 47.8922 141.285 46.1511C141.285 44.41 139.854 42.9899 138.1 42.9899C136.345 42.9899 134.915 44.4101 134.915 46.1511C134.915 47.8921 136.346 49.3123 138.1 49.3123Z" fill-rule="evenodd"  fill="#0A3994" >
</path>
<path d="M139.394 54.14C184.593 54.14 221.248 90.7954 221.248 135.994C221.248 145.231 219.716 154.108 216.894 162.391C213.669 162.251 206.086 162.164 196.644 163.654C184.018 165.648 162.918 170.466 144.975 173.955C127.032 177.444 97.7907 175.118 83.1705 170.134C71.221 166.06 62.9359 159.435 60.3071 157.149C58.5056 150.4 57.539 143.311 57.539 135.994C57.539 90.7954 94.1944 54.14 139.394 54.14ZM211.072 175.533C208.171 175.001 199.793 173.875 184.184 174.786C164.247 175.949 133.345 180.767 115.9 181.265C98.6502 181.759 78.4774 177.54 67.2667 174.715C69.2764 178.45 71.5702 182.009 74.1146 185.368C78.8972 185.806 96.1483 187.294 102.277 186.582C109.421 185.751 140.987 184.921 152.949 187.247C164.911 189.573 186.177 189.905 193.488 189.24L202.221 188.446C205.563 184.446 208.533 180.126 211.072 175.533ZM188.669 201.348C186.827 202.74 184.923 204.054 182.964 205.289C175.592 204.634 160.342 202.627 143.812 198.876C124.041 194.391 105.433 195.387 100.947 196.052C97.4545 196.57 88.9259 197.187 85.3217 197.435C83.499 195.829 81.7469 194.146 80.0739 192.386C82.3405 192.23 85.2057 192.064 88.8193 191.898C97.8525 191.483 105.262 190.174 115.139 189.402C121.065 188.94 125.516 188.576 137.166 189.573C164.66 191.924 184.473 199.61 188.669 201.348ZM171.43 211.334C167.927 210.7 155.303 208.286 142.316 204.193C127.031 199.375 111.58 198.378 100.947 200.704C96.8788 201.594 94.5397 202.629 93.1992 203.569C106.346 212.577 122.255 217.849 139.394 217.849C150.764 217.849 161.591 215.527 171.43 211.334Z" fill-rule="evenodd"  fill="#0A3994" >
</path>
<path d="M160.9 108.292C160.9 108.292 143.348 121.156 132.624 137.965C125.316 149.42 120.019 165.212 117.947 178.508L119.292 178.155L118.436 184.131L119.836 183.462C119.836 183.462 119.292 190.512 119.484 193.69C119.677 196.868 120.279 197.883 120.279 197.883L122.852 188.872L123.783 191.624C123.783 191.624 131.213 165.973 145.632 146.025C151.827 137.454 161.857 127.99 171.281 121.596C179.88 115.762 188.595 111.975 192.964 110.177C195.104 109.296 194.612 108.856 194.389 108.769C194.169 108.682 194.522 108.373 193.043 108.365L160.9 108.292Z" fill-rule="evenodd"  fill="#FFFFFF" >
</path>
<path d="M173.527 109.968L190.128 109.876C190.128 109.876 184.849 111.535 179.698 114.324C175.412 116.645 173.367 117.98 172.983 118.239C164.036 124.279 155.702 131.129 149.039 139.127C141.721 147.913 136.298 158.012 131.49 168.231C125.982 179.937 123.743 188.767 123.743 188.767C123.743 188.767 123.727 187.381 123.536 185.888L123.344 184.395C123.344 184.395 122.525 186.535 121.777 188.727C121.231 190.327 120.91 191.992 120.71 192.834C120.245 194.799 120.332 194.926 120.332 194.926C120.332 194.926 120.53 187.179 120.787 184.356C121.045 181.534 121.451 180.221 121.451 180.221L119.827 182.117C119.827 182.117 119.938 180.671 120.273 178.722C120.608 176.774 120.838 175.686 120.838 175.686L119.224 176.935C119.224 176.935 120.575 169.062 123.982 159.314C125.366 155.351 127.474 151 129.372 146.863C133.032 138.888 137.774 132.593 143.863 125.987C149.916 119.419 156.557 114.07 161.355 109.769L173.527 109.968Z" fill-rule="evenodd"  fill="url(#linear_fill_63Iz-erpmJyt8mBElwQ-a)" >
</path>
<path d="M102.643 145.237L78.4981 145.237C78.4981 145.237 89.0614 118.829 111.999 99.362C134.936 79.8953 157.035 71.7879 157.035 71.7879L156.985 73.0621L162.961 71.3562L162.454 72.6908C167.769 71.1504 173.127 69.5384 178.848 69.6047C174.207 71.9331 173.183 72.4059 172.037 73.0919C171.516 73.4034 170.97 73.7594 170.047 74.3533L173.025 74.6351C173.025 74.6351 159.081 82.0083 146.405 91.0624C133.729 100.116 117.281 116.716 110.037 130.599C102.794 144.482 102.492 145.388 102.643 145.237Z" fill-rule="evenodd"  fill="#FFFFFF" >
</path>
<path d="M81.6582 143.581L101.879 143.581C101.879 143.581 111.231 119.587 131.528 101.931C149.717 84.577 169.368 75.3718 169.368 75.3718C169.368 75.3718 167.862 75.6737 166.204 75.8245L164.546 75.9756C164.546 75.9756 167.59 74.1211 170.175 72.7168C171.429 72.036 173.309 71.183 175.342 70.543C175.342 70.543 172.96 70.9852 170.228 71.6621C166.83 72.5037 164.602 72.883 159.632 75.0379L161.352 72.9759C161.352 72.9759 159.808 73.4193 157.765 74.2014C155.721 74.9834 154.589 75.4633 154.589 75.4633L155.612 73.561C155.612 73.561 132.653 83.6716 117.573 96.3476C93.3758 115.814 81.6582 143.581 81.6582 143.581Z" fill-rule="evenodd"  fill="url(#linear_fill_Ox2GcI408GnPLI5l2Ilc7)" >
</path>
<path d="M137.585 102.408L136.027 97.4352L132.665 97.6787L132.029 102.779L129.585 103.23L126.084 99.7075L123.244 101.202L124.326 106.046L123.137 107.463L118.204 106.784L116.886 109.459L120.657 112.906L120.131 114.662L115.401 116.263L115.403 119.59L120.457 120.698L120.885 122.235L117.607 125.802L118.806 128.693L124.161 127.418L125.279 128.484L124.061 133.703L126.782 135.116L130.551 131.458L132.436 132.094L133.63 136.69L136.792 136.753L138.119 131.814L139.602 131.115L143.576 135.028L146.593 133.411L144.978 127.538L146.448 126.62L150.895 127.989L152.814 124.972L148.984 121.165L149.54 119.942L154.423 118.359L154.664 115.305L149.585 113.852L148.857 112.101L152.444 107.91L150.475 105.486L145.66 107.164L144.447 105.753L145.242 100.672L142.976 99.5825L139.35 102.601L137.585 102.408Z" fill-rule="evenodd"  fill="#FFFFFF" >
</path>
<path d="M136.907 103.448L135.331 98.4631L133.419 98.6045L132.776 103.769L129.605 104.287L125.864 100.856L124.232 101.793L125.463 106.508L123.681 108.642L118.944 107.748L118.002 109.227L121.705 112.957L120.884 115.288L116.294 116.844L116.267 118.893L120.968 120.087L121.658 122.454L118.496 125.937L119.475 127.807L124.419 126.446L126.013 128.242L124.876 133.117L126.648 134.098L130.369 130.38L133 131.164L134.305 135.888L136.049 135.877L137.57 130.973L139.855 130.27L143.567 133.925L145.516 132.876L143.968 127.058L145.731 125.681L150.488 127.034L151.691 125.283L148.203 121.656L148.734 119.214L153.547 117.685L153.622 115.87L148.706 114.573L147.801 112.104L151.393 108.218L150.012 106.526L145.274 108.064L143.585 106.409L144.378 101.263L142.886 100.469L139.529 103.699L136.907 103.448Z" fill-rule="evenodd"  fill="#E60032" >
</path>
<path d="M133.672 243.515L134.426 248.484L132.514 248.419L133.672 243.515Z" fill-rule="evenodd"  fill="#FFFFFF" >
</path>
<path d="M31.8186 185.564L43.4341 183.608L45.2863 187.413L36.5595 195.308L35.0019 192.107L36.7554 190.759L35.532 188.242L33.3895 188.792L31.8186 185.564Z" fill-rule="evenodd"  fill="#0A3994" >
</path>
<path d="M42.3621 186.375L38.3615 189.417L37.5023 187.707L42.3621 186.375Z" fill-rule="evenodd"  fill="#FFFFFF" >
</path>
<path d="M230.128 100.342L229.975 100.06C229.849 99.8285 229.878 99.5649 229.758 99.477C229.957 99.3631 229.989 98.7525 230.406 98.5254L230.612 98.4135C230.873 98.2717 231.143 98.2987 231.384 98.4257C231.503 98.4875 231.612 98.5583 231.735 98.6281C231.902 98.7222 231.907 98.8282 232.053 98.9393C232.284 99.1151 232.482 99.3345 232.658 99.6647C232.784 99.8991 233.052 100.143 233.237 100.482L233.432 100.841C232.985 101.24 232.163 101.147 231.667 101.123C231.032 101.092 230.54 101.099 230.128 100.342ZM237.701 87.8964C237.387 87.9052 236.747 87.5809 236.514 87.7076L236.437 87.7493C236.322 87.5766 235.842 87.7453 235.653 87.7725C235.375 87.8119 235.111 87.8694 234.811 87.9227C234.499 87.9786 234.27 88.0092 233.984 88.0197C233.749 88.0279 233.438 87.8167 233.209 87.9414L232.978 88.067C232.873 88.124 232.857 88.1637 232.879 88.2538C232.666 88.37 232.585 88.5688 232.502 88.7249C232.852 89.3681 233.451 89.6984 233.953 89.8767C234.329 90.0099 235.337 89.947 235.822 89.6828L236.208 89.4724L236.231 89.5014L237.901 88.1546L237.701 87.8964ZM245.337 92.5299C245.834 92.2589 247.424 91.7728 247.629 92.1489L247.642 92.1741C247.702 92.2844 247.355 92.6308 247.228 92.6997L246.945 92.8539C246.184 93.2677 244.329 94.2148 243.817 94.0237C243.793 93.5509 244.328 93.079 244.874 92.7819L245.337 92.5299ZM244.661 96.4264C244.777 96.5636 244.89 96.6622 245.017 96.8258C245.199 97.0582 245.289 97.056 245.406 97.1875L245.561 97.1036C245.817 96.9644 245.654 96.6937 245.892 96.5426L245.83 96.5576L245.788 96.4808C245.652 96.23 245.777 95.9728 245.629 95.7016C245.645 95.6772 245.752 95.5012 245.766 95.5162L246.266 95.1556L246.416 95.0626L247.425 94.5907L247.605 94.4923C247.805 94.3837 247.894 94.106 247.809 93.9492C247.742 93.8273 247.678 93.7791 247.603 93.6944C247.552 93.7397 247.558 93.7522 247.488 93.7899L245.361 94.968L243.972 95.4717C244.128 95.7594 244.466 96.1996 244.66 96.4264L244.661 96.4264ZM249.111 92.2413C248.959 92.3238 248.925 92.9089 248.398 93.1952L248.323 93.3023C248.415 93.4435 248.521 93.4687 248.635 93.6328C248.719 93.7536 248.856 93.9189 248.949 94.0294C249.141 94.2562 249.423 94.5283 249.566 94.7908L249.608 94.8676C249.682 95.0043 249.369 95.4309 249.172 95.5377C249.008 95.627 247.805 95.6497 247.57 95.7775C247.212 95.9723 247.442 96.1795 247.327 96.309C247.468 96.3751 250.828 94.9371 251.278 94.6919L251.484 94.5796C251.78 94.4186 251.783 94.2834 252.148 94.0847C252.147 93.9897 252.146 93.8999 252.084 93.7865L252.043 93.7097C251.909 93.4633 250.852 93.1518 250.581 92.9619C250.358 92.8051 249.296 92.1404 249.111 92.2413ZM253.316 87.7212C252.974 87.8972 252.49 88.069 252.091 88.287C251.585 88.5634 251.271 88.4375 250.912 88.6288C250.476 88.8596 250.052 89.1056 249.637 89.2902C249.237 89.4682 248.862 89.5459 248.411 89.7913L248.18 89.9169C247.908 90.0652 247.738 90.2392 247.505 90.4294C247.188 90.6874 247.25 91.023 247.172 91.0655L247.095 91.1075C246.756 91.292 246.128 91.4374 245.751 91.5655C245.272 91.728 244.996 91.6837 244.415 91.9998C244.258 91.9854 243.978 92.0375 243.791 92.1396L242.968 92.5874C242.778 92.6909 242.624 92.8068 242.516 92.9279C242.407 93.0509 242.301 93.2558 242.234 93.3199L241.866 92.8871L242.89 92.319L243.59 92.0154L243.788 91.8904L244.411 91.5018C244.357 91.4882 244.344 91.5035 244.303 91.4275C244.192 91.2245 243.8 91.4374 243.654 91.2146C243.684 91.1945 243.876 90.8362 243.967 90.7245C244.098 90.5643 244.224 90.4053 244.447 90.284L244.627 90.1859C244.73 90.1298 244.939 90.1488 245.043 90.0924L245.094 90.0646C245.258 89.975 245.262 89.9064 245.426 89.8166L245.529 89.7607C246.344 89.3168 247.021 89.7483 247.458 89.5104C247.589 89.4393 247.582 88.8091 247.873 88.6189C247.766 88.4214 247.72 88.2782 247.634 88.1163C247.527 87.9168 247.365 87.8388 247.358 87.7334C247.325 87.7626 246.612 88.1076 246.486 88.1294C246.235 88.1725 245.894 88.1807 245.634 88.3031C245.139 88.5376 244.333 89.0793 243.864 89.335L243.71 89.4189C243.129 89.7349 242.666 90.1862 242.096 90.4963C241.85 90.6301 241.661 90.8934 241.409 91.07C241.152 91.2503 240.945 91.457 240.644 91.6214L240.618 91.6353C240.526 91.6854 240.175 91.4451 240.111 91.3776C240.57 91.1282 241.011 90.8217 241.523 90.5434C242.056 90.2528 242.4 89.9538 242.857 89.6853C243.12 89.5305 244.002 88.9849 244.101 88.8006C244.227 88.5654 244.291 87.7926 244.487 87.6634C244.35 87.3961 244.782 86.6758 244.668 86.466C244.656 86.4433 244.434 86.2707 244.39 86.239C244.256 86.1406 244.197 86.1565 244.019 86.2528L243.865 86.337C243.495 86.5383 243.342 86.8768 242.937 87.1426C243.028 87.3181 242.889 87.512 242.755 87.6064C242.463 87.8139 242.516 87.8601 242.331 87.999C241.98 88.2612 241.601 88.4457 241.182 88.6955C240.805 88.9203 240.542 89.1791 240.108 89.4146C239.683 89.6459 239.306 89.8849 238.925 90.0748L238.356 89.8146L238.337 89.8409L238.293 89.9359C238.239 89.909 238.261 89.8874 238.189 89.9271L238.137 89.9552C237.955 90.0544 238.625 91.1392 238.775 91.3722C238.928 91.6086 239.066 91.7923 239.225 91.9666C239.354 92.1072 239.633 92.336 239.717 92.4919L239.801 92.6461C239.899 92.8258 239.752 93.1053 239.892 93.3621L239.92 93.4134C240.02 93.5985 240.486 93.42 240.809 93.6904C240.961 93.8185 241.451 94.299 241.579 94.4436C241.704 94.5876 241.798 94.725 241.909 94.9294C242.009 95.1137 242.142 95.2265 242.269 95.39C242.39 95.5443 242.988 96.1744 243.015 96.2246L243.057 96.3022C243.233 96.6248 243.251 96.7575 243.252 97.0279C242.856 97.2436 242.551 97.3944 242.483 97.7074C242.433 97.9353 242.351 98.3704 242.497 98.6385C242.795 99.1856 244.513 98.9832 245.112 98.8115L246.008 100.192C246.049 100.256 246.08 100.398 246.082 100.451C246.01 100.468 245.013 100.255 244.878 100.215C244.498 100.1 244.108 99.9139 243.713 99.8549C243.481 99.8212 243.345 99.7849 243.127 99.7197C242.768 99.6111 242.892 99.7492 242.558 99.4538C242.337 99.2596 242.281 99.2052 242.044 99.0788C241.954 99.0306 241.488 98.8673 241.469 98.8316C241.379 98.6663 241.415 98.4872 241.404 98.4673C241.344 98.3574 240.589 97.5421 240.476 97.4446C240.171 97.1781 239.796 96.9225 239.48 96.6551C239.2 96.4185 238.77 96.1265 238.461 95.94C238.145 95.7489 237.712 95.4816 237.276 95.7191C236.88 95.9343 236.516 96.4037 236.71 96.76L236.78 96.8884C236.863 97.0409 237.122 97.1155 237.255 97.175C237.472 97.2734 237.559 97.3408 237.742 97.501C237.904 97.643 238.58 98.2029 238.662 98.3282C238.55 98.3554 237.379 98.2842 237.242 98.2437C236.89 98.1388 236.244 97.8789 235.839 98.0997L235.787 98.1277C235.298 98.3942 234.893 99.513 234.88 99.5204L234.648 99.6463C234.209 99.8858 233.841 99.1675 233.546 98.9246C233.375 98.7851 233.222 98.5493 233.057 98.3854C232.897 98.2258 232.707 98.0197 232.549 97.8454C231.9 97.1319 230.935 97.1716 229.933 97.7173C229.072 98.1859 228.388 99.2024 228.371 99.8886C228.357 100.441 228.359 100.636 228.515 101.246C228.728 102.078 228.801 101.972 229.356 102.372C229.462 102.448 229.512 102.539 229.615 102.595C229.728 102.658 229.773 102.677 229.889 102.759C230.119 102.921 230.223 102.969 230.468 103.064C230.562 103.099 231.001 103.305 231.044 103.304C231.355 103.3 231.405 103.323 231.695 103.367C231.926 103.401 232.089 103.407 232.323 103.43C232.62 103.459 232.715 103.419 232.998 103.409C233.299 103.4 233.429 103.28 233.719 103.231C233.961 103.19 234.313 102.954 234.45 103.018C234.675 103.183 234.837 103.549 235.031 103.901C235.235 104.273 235.306 104.627 235.402 104.937C235.456 105.115 235.576 105.249 235.624 105.457C235.668 105.636 235.706 105.787 235.751 105.968C235.824 106.271 235.739 106.793 235.803 106.911C235.895 107.08 236.25 106.934 236.43 106.837C237.099 106.472 237.291 106 237.446 105.476C237.614 104.911 237.319 104.37 236.935 103.664L236.19 102.305L235.998 101.943C236.558 101.574 236.864 101.259 236.915 100.726C236.949 100.379 236.461 99.2931 236.688 99.1695C236.919 99.0436 237.566 99.2894 237.798 99.356C238.147 99.4572 238.515 99.578 238.863 99.6911C239.197 99.7999 240.81 100.223 241.105 100.062C241.344 99.9323 241.301 99.7687 241.417 99.5933C241.818 99.5876 241.685 99.7619 241.951 99.9017C242.256 100.463 242.913 101.076 243.377 101.138C243.823 101.198 243.783 101.273 244.147 101.526C244.422 101.719 244.65 101.825 244.917 101.985C245.197 102.152 245.393 102.26 245.653 102.488C245.845 102.656 246.2 102.743 246.441 102.886C247.099 103.275 247.41 102.076 247.568 101.773C247.358 101.387 247.615 100.818 247.474 100.559C247.339 100.31 247.216 100.12 247.043 99.8271C246.898 99.5816 246.696 99.3739 246.518 99.0473L246.281 98.6125L246.69 98.3222L246.793 98.2658C247.168 98.0614 247.39 98.0872 247.715 97.9888C248.022 97.8956 248.354 97.7797 248.657 97.649C249.278 97.3814 249.984 97.0948 250.623 96.7541L250.729 96.8037L252.615 95.8623C252.863 95.737 253.259 95.4637 253.424 95.3025C253.533 95.1942 254.001 94.7347 253.948 94.6369L253.866 94.4858L253.952 94.4013L253.911 94.3245C253.828 94.1728 253.851 94.0294 253.736 93.8197L253.667 93.6912C253.375 93.1552 252.76 92.8323 252.35 92.5957C252.11 92.4579 251.912 92.2776 251.666 92.1362C251.412 91.9888 251.216 91.8629 250.977 91.6908L250.826 91.7492L248.942 91.5355L248.799 91.178C248.864 91.1602 248.872 91.1718 248.942 91.1335L249.636 90.756C249.788 90.6729 250.21 90.3869 250.312 90.3662C250.421 90.3447 250.457 90.396 250.629 90.3163C250.823 90.2245 250.793 90.2211 250.967 90.1927C251.35 90.1321 251.714 90.4731 252.01 90.75C252.414 91.1256 253.614 92.1543 254.114 91.8819C254.365 91.745 254.121 91.0372 253.957 90.7358C253.761 90.375 253.611 90.214 253.306 90.1635C252.874 90.0924 252.787 89.8248 252.595 89.7667L253.666 89.1618C253.757 88.9908 253.934 88.4282 253.817 88.2141L253.649 87.906C253.616 87.8448 253.398 87.7756 253.316 87.7212Z" fill-rule="evenodd"  fill="#003994" >
</path>
<path d="M21.1419 93.0118L21.1702 93.0279C21.3738 93.145 22.1074 93.2187 22.3171 93.2397C22.5374 93.2612 22.6502 93.2765 22.8702 93.2669C23.0862 93.2573 23.2489 93.215 23.4269 93.2L23.5134 93.3675C23.6435 93.3723 24.8292 93.0277 24.8876 92.9259L24.9522 92.8136C25.3094 92.9216 25.4712 92.8973 25.7828 92.8151C25.848 92.7978 26.5362 92.461 26.5388 92.4565C26.5773 92.3899 26.5535 92.2371 26.5683 92.2116C26.632 92.1007 26.7052 92.1027 26.7692 91.9919C26.8254 91.8938 26.8619 91.3116 26.8835 91.2736L27.0127 91.0488C26.5257 90.7687 26.5583 90.4138 26.2202 90.2194L25.9112 90.0419C25.7513 89.9501 25.5149 89.9538 25.3698 89.9699C25.2757 89.9804 25.2088 89.9895 25.1198 90.0071C24.9576 90.0402 24.9621 89.9841 24.8312 89.9943C24.7206 90.0014 24.7167 90.0601 24.5931 90.0768C24.5131 90.0873 24.4227 90.0683 24.3317 90.0737C24.2362 90.0796 23.883 90.1221 23.8073 90.1528C23.5468 90.2593 23.1378 90.5323 22.8946 90.7225C22.5051 91.0292 22.3826 91.0496 22.0651 91.6015C21.8565 91.7047 21.9036 91.6599 21.7434 91.9026C21.6414 92.0562 21.5217 92.0265 21.405 92.2297L21.1144 92.7351C21.0603 92.8292 21.0515 92.9596 21.1419 93.0118ZM29.1155 99.0156C29.1586 99.0127 29.2578 98.9858 29.2759 98.9963C29.6821 99.2299 30.1212 99.5505 30.4639 99.7095C30.6238 99.7843 30.7607 99.6993 31.0515 99.8665C31.3086 100.014 31.4379 100.127 31.6814 100.267C32.1644 100.545 32.7844 100.807 33.1886 101.188C33.3397 101.329 33.6815 101.541 33.8629 101.693C33.9803 101.792 34.4622 102.127 34.571 102.19C34.7207 102.276 34.9622 102.354 35.0487 102.203C35.1198 102.08 34.7882 101.64 34.7318 101.506C34.6277 101.258 34.5929 101.343 34.4922 101.168C34.437 101.072 34.3667 100.912 34.3176 100.812L34.177 100.731C34.1223 100.621 33.0043 99.4918 32.8238 99.3186C32.5375 99.0428 32.4587 98.8497 32.2347 98.6008C31.983 98.3208 31.7639 98.1949 31.6032 97.8698C31.1573 97.6133 31.2403 97.4372 30.9707 97.2825L30.7457 97.1529C30.5053 97.0149 30.0849 97.1662 29.8624 97.2144C29.5279 97.2864 29.3346 97.3519 28.9752 97.3545C28.8329 97.3547 28.7002 97.3939 28.5364 97.399C28.3779 97.4029 28.2302 97.3746 28.0797 97.3757C27.9419 97.3757 27.2497 97.389 27.1879 97.4962C27.0068 97.8117 27.4291 98.2788 27.8387 98.4189C28.2481 98.5572 28.6829 98.767 29.1155 99.0156ZM48.0231 84.3134L47.9747 84.3973C47.6353 84.2023 46.756 84.3171 46.4621 84.414C46.2804 84.4741 45.9102 84.5725 45.7934 84.7482C45.6247 85.0042 45.3455 85.3347 45.2423 85.5141C45.1287 85.7111 45.1718 85.7267 45.265 85.8637C45.2112 85.8903 45.1224 85.9175 45.0844 85.9836C45.081 85.9895 44.913 86.7506 44.8217 86.9553C44.6485 87.3442 44.602 87.5361 44.344 87.9845C44.3871 88.6169 44.2102 88.6371 44.0237 89.2562L43.9174 89.3029L43.9659 89.4149C43.8874 89.5586 43.8531 89.7105 43.7865 89.8653C43.7289 89.9983 43.6898 90.2922 43.6878 90.2959L43.5753 90.4915C43.5313 90.5677 43.5169 90.5615 43.4656 90.6159C43.3944 90.5947 43.3854 90.6066 43.31 90.5632L43.2538 90.5309C43.0894 90.4362 43.0197 89.3987 42.8442 89.1005C42.5945 88.6756 42.489 88.1719 42.3697 87.7118C42.3014 87.4496 42.0018 86.5635 41.887 86.3246C41.7665 86.0723 41.163 85.2593 40.8594 85.0847C40.7599 84.8843 40.5666 84.7536 40.4815 84.5705C40.3171 84.2162 40.2386 84.3406 40.0189 84.0787C39.8962 83.933 39.5569 83.802 39.3449 83.69C39.0574 83.5378 38.8856 83.6078 38.675 83.4933L38.6631 83.5528C38.3094 83.4483 38.1175 83.5914 37.7832 83.5251C37.3342 83.4346 37.3393 83.4712 36.8373 83.1826L36.8209 83.2113L37.0553 83.3964C36.5938 83.1554 36.1652 82.9635 36.2265 82.5655C36.2761 82.2407 36.1941 81.809 36.0629 81.5425C36.1805 81.3379 36.2455 81.1111 36.2922 80.9121C36.3787 80.5484 36.3622 80.6723 36.2735 80.348C36.2214 80.1555 36.2231 79.9869 36.1684 79.808C36.1431 79.7261 35.9558 79.3905 35.8441 79.3261L35.6757 79.2294C35.4875 79.1212 34.6221 79.3372 34.4168 79.3956C34.3905 79.4029 34.0123 79.8423 33.9188 79.9225C33.7663 80.0521 33.5389 80.0229 33.3799 80.2992L33.122 80.7477C33.0154 80.9331 32.957 81.6633 32.9785 81.8535C33.0001 82.036 32.7557 82.7385 32.6945 82.9732C32.5907 83.3734 32.4504 83.7306 32.3132 84.1425C32.1928 84.5044 32.0785 84.9863 31.9306 85.2891C31.8353 85.4838 31.6851 86.2081 31.6389 86.4345C31.583 86.7098 31.4796 87.3056 31.4056 87.5403C31.3135 87.8346 31.305 87.8405 31.2517 88.1033C31.1763 88.4775 31.1119 88.1991 31.1553 88.651C31.1859 88.971 30.7411 89.5717 31.0184 89.731L31.4954 90.0054L31.7588 89.712L33.1123 89.2292L33.6265 88.3933L33.91 87.8842C34.0778 87.5925 34.1147 87.3003 34.1696 87.0559C34.2212 86.8232 34.3839 86.4898 34.4761 86.2378C34.6255 85.8302 34.742 84.933 34.8826 84.6345L35.0512 84.7315C35.1314 84.7777 35.2644 84.6683 35.4957 84.8012L35.7208 84.9308C35.7962 84.9739 35.7902 84.9883 35.8446 85.0388L35.877 84.9826L37.7569 86.0635C37.8195 86.0995 38.5795 86.8206 38.6356 86.8938C38.787 87.0894 39.2592 87.5531 39.4616 87.7376C39.5297 87.7991 39.7638 88.1008 39.8296 88.1838C39.9438 88.3287 40.0413 88.4636 40.1465 88.6195C40.337 88.9007 40.4889 89.2479 40.6723 89.5206C40.7914 89.6981 40.8724 89.8007 40.9671 89.9861C41.0119 90.0742 41.0924 90.1165 41.1352 90.2018C41.1721 90.2752 41.1692 90.335 41.222 90.4393C41.2971 90.5867 41.4028 90.7367 41.4935 90.8872C41.5667 91.0065 41.6341 91.2356 41.6979 91.3535C41.8518 91.6384 42.0239 91.9992 42.059 92.3232C42.0998 92.7045 41.9644 93.0773 41.9853 93.3865C41.8232 93.6683 41.864 93.7236 41.8515 93.9673C41.8439 94.1051 41.6849 94.4305 41.5973 94.5808C41.4507 94.8328 40.8396 95.6021 41.0794 95.7401L41.3886 95.9179C41.6823 96.0868 42.4202 95.9008 42.7019 95.8663C43.0492 95.824 43.6736 95.8388 43.8947 95.4541L44.2494 94.8376C44.4016 94.5725 44.7364 93.8956 44.7227 93.6907C44.9005 93.3817 44.8585 93.2232 45.0632 92.8397C45.1641 92.6523 45.2392 92.2501 45.2965 92.0418C45.4456 91.5032 45.875 90.917 45.9941 90.3843C46.0451 90.1581 46.7195 88.9815 46.9 88.6702C46.9695 88.5498 47.6455 87.0675 47.647 87.046C48.1178 86.7495 48.0424 86.4691 48.3565 86.1619C48.6638 85.8614 48.81 85.8024 49.0802 85.3322L49.3387 84.8826L48.1039 84.1725L48.0231 84.3134ZM36.0022 95.2843C36.2897 95.4496 37.1058 96.4542 37.2183 96.6631C37.3459 96.9009 37.529 97.2034 37.7438 97.399C37.8825 97.524 38.3598 97.9863 38.4199 98.0934C38.5733 98.3707 38.8941 98.5501 39.075 98.7936C39.2547 99.036 39.4137 99.2829 39.5407 99.5445C39.8126 100.105 40.1403 100.539 40.8846 100.96L40.9478 101.164L42.8082 102.279L43.5863 102.745C44.1235 103.06 44.2329 102.93 44.4333 103.464C44.566 103.82 44.638 104.097 44.3803 104.545C44.2352 104.617 43.9962 104.763 43.8494 104.862C43.6042 105.027 43.5053 104.949 43.3006 105.111C43.1249 105.25 42.3774 105.308 42.1208 105.305C41.8977 105.303 41.6642 105.33 41.5083 105.321C41.4275 105.316 41.275 105.318 41.1953 105.304C41.042 105.276 41.0301 105.191 40.8535 105.179C40.5263 105.156 40.5657 105.168 40.2083 105.073C40.0547 105.032 39.7187 105.024 39.5815 105.034C39.0637 104.736 38.2152 104.845 37.8646 104.644C37.6636 104.528 37.512 104.087 37.6171 103.904L37.6818 103.792C37.7696 103.639 37.8272 103.669 37.9153 103.515L37.9386 103.49L38.1818 102.922C38.1639 102.659 38.0874 102.515 38.0421 102.273C37.9913 101.995 38.0919 101.913 37.9431 101.612C37.8638 101.451 37.7305 101.12 37.6146 101.013C37.4264 100.839 37.4553 100.6 37.4286 100.376C37.4111 100.225 37.2917 99.8685 37.1664 99.7588C36.917 99.5425 36.9927 99.3985 36.8793 99.1494C36.748 98.8605 36.8798 98.8905 36.6015 98.5365C36.4433 98.3367 36.3118 98.1867 36.2129 97.9537C36.1318 97.7626 35.9776 97.5631 35.8781 97.3567C35.7423 97.0764 35.6425 97.0248 35.4889 96.7742C35.3174 96.4944 35.2587 96.5103 35.1411 96.1803C35.0501 95.9269 34.8675 95.9057 34.7695 95.5936C34.5469 94.8761 34.4834 95.0179 34.0075 94.4237C33.8445 94.2208 33.6027 94.0938 33.5435 93.8619C33.5233 93.7834 33.4496 93.2312 33.4709 93.1943C33.5211 93.1067 33.9338 93.1994 34.0044 93.24L34.285 93.4013C34.4262 93.4823 34.9945 94.2077 35.0847 94.3469C35.2309 94.5714 35.9895 95.0938 36.0022 95.2843Z" fill-rule="evenodd"  fill="#003994" >
</path>
<path d="M50.1145 48.9356C50.2214 49.058 50.9604 49.4334 51.0675 49.454C51.2376 49.4866 51.3694 49.5995 51.5404 49.6128C51.6815 49.6241 51.9063 49.6647 52.039 49.6984C52.2088 49.7412 52.846 49.7188 53.0297 49.6666C53.1575 49.6306 53.1385 49.6822 53.2581 49.7083C53.3934 49.7381 53.3843 49.6774 53.5133 49.6658C53.5581 49.6618 54.0195 49.5476 54.0266 49.5414C54.0947 49.4818 54.0981 49.4413 54.1219 49.3795C54.4504 49.2888 54.6327 48.6022 54.7069 48.3264C54.8215 47.9026 54.8549 47.5857 54.7789 47.1537C54.7222 46.8297 54.6803 46.2914 54.7415 45.9734C54.7659 45.8481 54.8025 44.8324 54.7529 44.7755L54.6942 44.7083C54.6216 44.7834 54.301 45.2055 54.2551 45.288C54.1854 45.4138 54.0873 45.4456 54.0238 45.5666C53.9764 45.657 53.9263 45.792 53.8546 45.8702C53.6198 46.1267 53.581 46.2968 53.4532 46.4524C53.3667 46.5579 52.9815 46.9488 52.8953 47.0239L52.4928 47.3748C52.2255 47.6076 51.6455 47.8335 51.3864 47.8664C51.2172 48.014 50.8201 48.2048 50.6681 48.2244C50.2092 48.2833 50.3711 48.3032 49.9535 48.5248C49.987 48.6669 49.9827 48.7839 50.1145 48.9356ZM61.7173 62.2048C61.4698 61.7385 61.9835 60.2016 62.4503 59.7948L62.5283 59.8844C62.6 59.9666 62.6405 59.8779 62.7123 59.9601L62.9657 60.2509L63.1545 60.5188C63.108 60.6146 63.1672 60.6472 63.2466 60.7541C63.3506 60.8938 63.2738 60.9205 63.3356 60.9913L63.394 61.0585C63.3308 61.1523 63.3523 61.1866 63.441 61.2929C63.3302 61.4576 63.4198 61.666 63.1692 61.8843C63.0309 62.005 62.5904 62.174 62.4308 62.2253C62.1014 62.3313 62.02 62.3214 61.7173 62.2048ZM64.5596 57.7899C64.6072 58.1343 64.7234 58.5768 64.73 58.9002C64.7339 59.1128 64.652 59.8048 64.4567 59.9751L64.3711 59.7654C64.3456 59.7418 64.2435 59.6936 64.2061 59.6423L63.8728 59.1474L63.9034 59.0723C63.8552 59.0607 63.7704 59.0522 63.7245 58.9994C63.6199 58.8795 63.6349 58.8061 63.5011 58.6513L64.5596 57.7899ZM60.4672 60.4995C60.5287 60.5591 60.6594 60.7257 60.707 60.6843C60.895 60.5205 61.1101 59.7427 61.5552 59.3546C61.6065 59.165 61.7448 58.8951 61.5787 58.7043L61.5398 58.6596C61.5299 58.6485 61.2175 58.5697 61.128 58.5326C60.9928 58.4767 60.8411 58.4025 60.7082 58.5184L60.5517 58.6547C60.3394 58.8398 60.3499 59.341 60.2875 59.5618C60.1747 59.9598 60.4233 60.1548 60.4672 60.4995ZM61.8018 57.2899L62.0365 57.5597L62.1122 57.5387L62.5671 57.8324L62.655 57.8596L64.0383 56.876C64.0063 56.7391 63.9482 56.6654 63.8294 56.5424L63.5068 56.0557L63.1689 56.0591C63.0022 56.2042 62.5994 56.5259 62.4356 56.6274C62.3693 56.6685 61.9259 57.1765 61.8018 57.2899ZM56.5588 40.2103C56.5225 40.1686 56.586 39.8415 56.5999 39.7715C56.6178 39.6813 56.8287 39.4789 56.895 39.3712C57.1351 38.982 57.3375 39.1084 57.689 39.06C57.9172 39.0282 57.8593 39.1195 58.1323 39.0353C58.2415 39.0016 58.3982 39.0183 58.5555 38.9968C58.6397 38.9851 59.3093 39.2125 59.3767 39.2899L59.4935 39.4239L59.7413 39.7587C59.7574 39.8616 59.6715 40.3293 59.6435 40.4648C59.5837 40.754 59.5973 40.9101 59.5516 41.1525C59.4983 41.4343 59.2404 42.2226 59.1273 42.5111C58.9918 42.8564 58.8818 43.5123 58.7868 43.8967C58.7372 44.0983 58.3461 45.1482 58.3996 45.2579C59.0301 44.7088 59.2353 43.8213 59.8603 43.2768L59.8827 43.2572C60.059 43.1036 60.8709 43.0568 61.0716 43.0951C61.4092 43.16 61.8049 42.9344 62.2074 43.3961C62.2678 43.4653 62.2522 43.5449 62.2349 43.6084L62.3324 43.7201C62.3029 43.8295 62.3327 43.8794 62.2777 43.99C62.2278 44.09 62.1691 44.1598 62.1272 44.253C62.0481 44.4288 61.9908 44.5867 61.8205 44.7576C61.5016 45.0774 61.2706 45.5924 61.0568 45.7775C60.6294 46.1477 60.446 46.4264 60.1205 46.7855C59.7943 47.1455 59.6443 47.4403 59.235 47.7969L59.2126 47.9012C59.0856 48.0061 58.8333 48.4707 58.754 48.6051C58.5986 48.8681 58.4254 49.0459 58.3531 49.3134L57.829 50.0181L57.8593 50.0989L57.8245 50.0842L57.6691 50.4238L57.8148 50.6471C57.8511 50.8861 57.8304 51.6036 57.994 51.7912L58.0719 51.8808L58.2004 52.0032L58.3514 51.957L58.3625 51.9865L58.426 51.8822C58.4861 51.9225 58.4929 51.9468 58.555 51.893L58.5995 51.8539C58.8557 51.6305 58.6392 51.6906 58.9711 51.6483C59.2444 51.41 59.6815 51.3442 59.7311 51.3011L59.8204 51.2231C59.9884 51.3861 60.4389 51.1789 60.6605 51.2387L60.7722 51.1412C60.9089 51.194 61.0931 51.2385 61.2184 51.3825L61.5305 51.7402C61.7754 52.0217 61.5398 52.3338 61.4639 52.577C61.3769 52.8562 61.3411 53.1034 61.3023 53.386C61.2697 53.6241 61.0996 53.9475 61.0262 54.1871C60.9817 54.3328 60.921 54.4456 60.8882 54.5981C60.8298 54.8665 60.8941 54.7361 60.743 54.9456L60.821 55.0352L60.675 55.5157L60.6413 55.5066L60.7192 55.5959C60.6002 55.7186 60.6064 55.938 60.6237 56.0729L60.5885 56.0605L60.4261 56.5072L60.4831 56.5891L61.7904 55.2455C62.0093 55.0312 62.4906 54.7645 62.7123 54.7475C62.8891 54.7339 63.4453 54.8736 63.5734 54.7619L63.5958 54.7426C63.6607 54.6857 63.9649 54.2557 64.0485 54.1428C64.1849 53.9589 64.2758 53.7559 64.1619 53.5408L64.3632 53.3653C64.379 53.3517 64.8399 52.7184 64.8711 52.6643C65.0511 52.3522 65.0423 52.2377 65.1778 51.9704C65.3451 51.641 65.9199 50.8271 65.8587 50.5664L64.7909 49.9382L64.8105 49.9053C64.6075 49.9529 64.2642 49.8404 63.9674 49.9311C63.6772 50.0198 63.3974 50.1528 63.093 50.4178C62.8761 50.6072 62.7474 50.7597 62.5535 50.9286C62.2856 51.1619 62.1771 51.0179 62.0172 51.08L61.7544 50.4572L61.7227 50.4708C61.7357 50.4224 61.7275 49.9507 61.7207 49.8818C61.7113 49.7857 61.8097 49.3914 61.8508 49.3018C62.0061 48.9642 61.8741 48.9894 61.9358 48.719C61.9676 48.579 62.0402 48.6289 62.0382 48.4316C62.037 48.331 62.0648 48.2366 62.0986 48.1413C62.1394 48.0262 62.2029 48.0135 62.2474 47.8573C62.2737 47.764 62.3134 47.6577 62.3318 47.5687C62.3866 47.3071 62.3341 47.3119 62.4336 46.9868C62.4671 46.8774 62.5898 46.4907 62.5952 46.4091C62.6043 46.2707 62.4727 45.881 62.5461 45.8169L62.6133 45.7585L62.7775 45.631C62.9637 45.4626 63.3353 45.3078 63.5247 45.3486C63.5414 45.3523 64.2095 45.739 64.2126 45.7424L64.349 45.8988L64.3938 45.86C64.7555 46.3521 64.6568 46.3799 64.3977 46.8277C64.3048 46.9882 64.2308 47.1308 64.1755 47.296C64.1015 47.5174 64.2203 47.5069 63.9493 47.7431L63.9575 47.8494C63.7492 48.0356 63.716 48.1731 63.5054 48.4064C63.4286 48.4914 63.3262 48.7899 63.1292 48.9693C63.354 49.2159 63.7563 49.0019 64.0315 48.9997C64.3274 48.9971 64.6373 48.9336 64.94 48.9359C65.1047 48.937 65.6589 49.0753 65.8287 49.1618C66.1495 49.3251 66.3607 49.5439 66.7006 49.6357C66.8216 49.5303 67.0541 49.4206 67.0975 49.3687L67.2511 49.1856L67.2261 49.102C67.4631 48.8829 67.5779 48.6949 67.8716 48.505C68.0573 48.3848 68.0587 48.4959 68.2631 48.3142C68.4144 48.1796 68.4847 48.1504 68.6313 48.1592C68.9312 48.1773 69.0777 48.037 69.3754 48.0424C69.4539 48.0438 70.0611 48.1186 70.0832 48.1444L70.2782 48.3681C70.3196 48.4157 70.2621 48.7391 70.2776 48.8517C70.291 48.9475 70.1821 49.2103 70.1495 49.3265C70.0662 49.6227 70.0327 49.9674 69.9621 50.2809C69.9324 50.4127 69.8482 50.6301 69.7994 50.7534C69.7637 50.8433 69.7504 50.8983 69.711 50.9998C69.6464 51.1665 69.7286 51.0811 69.6784 51.2288C69.6064 51.4391 69.5358 51.4533 69.5185 51.7016C69.5086 51.8437 69.554 52.0293 69.512 52.1847L69.8349 52.611L69.8601 52.6294L70.3233 53.0906L70.5648 53.3928C70.6348 53.4733 70.8939 53.5901 71.1025 53.8293C71.2355 53.7318 71.24 53.8117 71.3732 53.869C71.7545 53.5368 71.8846 53.691 72.2701 53.3625C72.3628 53.2834 73.0848 52.9506 73.1613 52.9407C73.3294 52.7941 73.6072 52.679 73.7949 52.5951C73.8504 52.5702 74.3918 52.3406 74.4015 52.3321C74.685 52.0852 74.5818 52.19 74.8851 52.029L74.846 51.9843C74.9593 51.9287 75.0526 52.001 75.1671 51.9012C75.2145 51.8601 75.1895 51.8675 75.2371 51.8008C75.3763 51.7833 75.8423 51.5058 76.1026 51.4485C76.2352 51.4193 76.3886 51.2988 76.5377 51.2339C76.6613 51.1803 76.8489 51.2067 76.9637 51.1551C77.1638 51.065 77.6194 50.9998 77.811 51.0667C77.9244 51.1061 78.1432 51.1384 78.2232 51.1891C78.3895 51.2954 78.4559 51.3842 78.6319 51.3618C78.7444 51.4907 78.8207 51.497 78.9548 51.5639C79.0999 51.6362 79.0747 51.6892 79.2088 51.8431C79.0313 52.0256 79.3 52.3536 79.1209 52.5098C79.0058 52.6101 78.7555 52.7094 78.6432 52.7306C78.4848 52.7607 78.3467 52.8502 78.188 52.9282C77.8141 53.1122 77.6463 53.2528 77.2565 53.327C76.9334 53.3885 76.6562 53.4537 76.3415 53.4829C76.0314 53.5116 75.7358 53.6167 75.4268 53.636C75.3057 53.6437 74.6614 53.8506 74.5038 53.9095C74.3924 53.9509 74.1656 53.9883 74.033 54.0303C73.8808 54.0782 73.7478 54.182 73.5775 54.231C73.2682 54.3203 72.9867 54.4665 72.6511 54.5527C72.4827 54.5961 72.362 54.6366 72.2007 54.684C71.9776 54.7497 71.852 54.6443 72.1193 54.951C72.1261 55.0046 72.1108 55.0425 72.1525 55.0794L72.6996 55.544L72.9408 55.8487L72.9164 55.8674L74.1501 57.4687L74.177 57.4477C74.3952 57.7312 74.6192 58.1031 74.8091 58.3537C74.9976 58.6023 74.9783 58.9614 75.0501 59.2324C75.164 59.661 75.0569 59.7208 75.0756 60.0964C75.0917 60.417 74.9574 60.7107 74.9883 60.9525L74.8766 61.05C74.8431 61.1733 74.7754 61.2958 74.6413 61.4123C74.5398 61.501 74.4831 61.4661 74.3845 61.4789C74.306 61.5877 74.01 61.8018 73.8757 61.8451C73.5885 61.9384 73.6307 61.9424 73.3527 62.1124C72.9391 62.365 72.6809 62.5201 72.286 62.6439C71.9226 62.7582 71.5963 62.8789 71.2383 62.894C71.1059 62.8993 70.2748 62.8588 70.215 62.7899L70.137 62.7003C70.0268 62.5739 70.429 62.5053 70.5744 62.4532C70.753 62.3894 70.9738 62.3055 71.136 62.2386C71.5884 62.0521 71.7945 62.0433 72.2715 61.6277C72.5301 61.4021 72.6202 61.0483 72.8059 60.8865C72.8532 60.8451 72.8424 60.8686 72.9147 60.8309L72.8705 60.6775L72.9292 60.6214C73.1687 60.4128 73.3028 59.6667 73.1565 59.4175C73.0845 59.2951 72.9655 59.1998 72.911 59.085C72.8495 58.9561 72.883 58.9184 72.8164 58.7843C72.7324 58.6148 72.5451 58.3296 72.4033 58.1669L72.3954 58.0606C72.066 57.6895 71.5048 56.6132 71.2343 56.5092L71.2607 56.4868L70.9146 56.0795C70.9044 56.0854 70.6952 55.7694 70.6416 55.6903C70.4613 55.4241 70.5438 55.5851 70.3403 55.4383C70.1064 55.61 69.6747 55.6248 69.4298 55.8382L69.2733 55.9746C68.5967 56.5642 68.5338 56.821 68.2974 57.4426C68.2194 57.6479 68.0558 57.9807 67.966 58.1768C67.9107 58.2973 67.8413 58.4189 67.7772 58.5425C67.7202 58.6516 67.7273 58.8568 67.663 58.913L67.6182 58.9521C67.5501 59.0113 67.5275 59.013 67.4645 59.0465L67.4586 59.1956L67.0989 59.4853L67.1955 59.5958C67.3676 59.7934 67.6505 59.7231 67.8458 59.6197L67.9238 59.7089C67.9779 59.7713 68.2248 59.7999 68.2948 59.8186C68.5706 60.1353 68.8141 60.0536 68.9417 60.1996C68.9612 60.2226 69.044 60.6217 69.0287 60.6685C68.9737 60.8363 68.7821 60.9378 68.6301 61.1036C68.4518 61.2983 68.0337 61.7507 67.8673 61.9764C67.6667 62.2485 67.401 62.5918 67.159 62.8528C66.886 63.1474 66.6433 63.4376 66.4656 63.7305C66.38 63.8713 66.1898 64.0238 66.071 64.1659C65.973 64.2832 65.846 64.4686 65.7547 64.6066C65.6906 64.7042 65.6081 64.7356 65.5497 64.8241C65.5007 64.898 65.4746 64.9615 65.4103 65.0457C65.3315 65.1483 65.1163 65.4063 65.046 65.4834C64.8102 65.7416 63.8331 67.0229 63.938 67.2366L63.8708 67.295C63.8416 67.3205 63.5077 67.8478 63.4958 67.858L62.4895 68.735C62.295 68.9043 62.0356 68.9876 61.8347 69.0851C61.5943 69.2019 61.4352 69.3448 61.1779 69.4604C60.957 69.5596 60.0364 69.984 59.9113 69.8403L59.7552 69.6614C59.5176 69.3887 59.6327 69.0273 59.7308 68.7764C59.7764 68.6592 60.2739 68.1315 60.3975 67.96C60.4162 68.106 60.2501 68.2877 60.3465 68.3983C60.4545 68.5221 61.2096 68.1973 61.3576 68.0683L61.6705 67.7952C61.9282 67.5711 62.0277 67.1693 62.3868 66.8565C62.4467 66.6351 63.6556 64.7274 63.8929 64.5208C64.0145 64.0698 64.4839 63.9192 64.5925 63.5173C64.857 63.2868 65.3238 62.5645 65.4848 62.4641L65.6835 62.3312C65.7 62.2682 65.6835 62.2515 65.7337 62.208L65.7785 62.1691C65.8307 62.1235 65.842 62.1252 65.8873 62.1133C65.9965 61.7094 65.9942 61.8511 66.2454 61.4863C66.3987 61.2632 66.5651 61.0877 66.6944 60.8652C67.032 60.2837 67.3775 60.2426 67.028 59.5842C66.9631 59.6511 66.9682 59.6758 66.8911 59.743L66.8687 59.7625C66.7718 59.847 66.7686 59.7872 66.6507 59.8736C66.484 59.6823 66.5753 59.5686 66.6487 59.3899C66.7355 59.1782 66.7474 59.1479 66.8027 58.9379C66.8798 58.6431 67.0002 58.2928 67.0413 58.0079C67.0884 57.6815 67.1164 57.4058 67.1697 57.0704C67.1964 56.9031 67.2369 56.7839 67.3024 56.6168C67.3653 56.4558 67.3537 56.3138 67.3889 56.1602C67.4353 55.958 67.4081 55.9215 67.4847 55.6831C67.5708 55.4155 67.4821 55.4067 67.5042 55.2219C67.5419 54.9053 67.6083 54.6224 67.6318 54.3054C67.6448 54.1305 67.6295 54.018 67.6443 53.8224C67.6576 53.6512 67.6828 53.5236 67.6973 53.3635C67.7063 53.2609 67.7231 52.9845 67.7457 52.9043C67.8067 52.6883 67.727 52.6013 67.7698 52.4431L67.6528 52.309C67.6675 52.2554 67.6941 52.2208 67.642 52.161L67.5836 52.0939L67.2857 51.8027C67.2505 51.79 67.1099 51.7588 67.0787 51.7857C67.0096 51.8461 66.943 51.9445 66.9166 52.006L66.8664 51.9708C66.7737 52.1925 66.7383 52.2016 66.556 52.4017C66.393 52.5806 66.4429 52.6475 66.3987 52.8116C66.2717 52.9221 65.6141 53.7822 65.5273 53.929C65.4381 54.0801 65.285 54.3329 65.217 54.4965C65.1163 54.7391 65.1121 54.8432 65.0242 55.0722L65.1997 55.2735L65.2036 55.4212C65.2583 55.4422 65.2609 55.4339 65.3108 55.4916C65.6127 55.838 66.1739 56.4669 66.1067 56.7659L66.2091 56.8326C66.1779 56.9653 66.4832 57.5512 66.5243 57.7411C66.5487 57.8541 66.5283 57.9937 66.5705 58.1859C66.6031 58.3344 66.6354 58.4733 66.653 58.6122L66.5413 58.7097C66.5776 58.9949 66.2933 59.6109 66.1878 59.9471C66.0518 60.3805 65.6793 60.707 65.4029 61.1336C65.1858 61.4687 65.2141 61.418 65.0786 61.7422C64.995 61.9421 64.9618 62.1535 64.845 62.3361C64.5565 62.7877 64.5942 63.1221 64.129 63.5275L64.0706 63.4603C63.737 63.9229 63.8597 64.1111 63.5944 64.521C63.4736 64.7076 63.3064 64.8512 63.1797 65.0392C63.0893 65.1741 62.9971 65.4193 62.8554 65.5426L62.0056 66.2833C61.9095 66.1527 62.094 65.9369 62.1717 65.8321C62.3063 65.6501 62.354 65.5526 62.4622 65.3896C62.6366 65.1265 62.7216 64.7552 62.8432 64.4904C62.9657 64.2237 63.5621 62.8597 63.4303 62.6802C63.1502 62.9243 62.964 62.7718 62.8716 62.852L62.7823 62.93L62.4767 62.7998L62.5858 62.7517L62.5864 62.7208L61.8542 62.6649C61.7884 62.7437 61.7933 62.7684 61.7162 62.8356C61.6782 62.8687 61.6067 62.8786 61.5654 62.8883L61.5407 63.0535L61.6561 63.1224L61.8587 63.5709L61.903 63.5454L62.1995 64.0275C62.0736 64.1432 61.9886 64.3923 62.0841 64.5222C61.8794 64.709 62.155 64.7753 62.0166 64.8961C61.859 65.0333 61.7624 64.9893 61.6272 65.054C61.2686 65.226 61.5475 65.1537 61.2465 65.086C60.9437 65.018 60.8425 65.1294 60.5318 64.7729L60.4278 64.7504C60.2719 64.5649 60.099 64.4451 59.9309 64.3356C59.6596 64.1584 59.6712 63.9957 59.4813 63.8384L59.1179 63.5274C59.0278 63.4387 59.0964 63.3511 59.036 63.2819L58.9385 63.1699L58.9833 63.1311L58.8203 62.9991L58.869 62.9548C58.676 62.8717 58.5504 62.3181 58.3795 62.122C58.394 62.0684 58.2998 61.7146 58.2826 61.6948L58.2046 61.6052C58.2536 61.5086 58.1754 61.4394 58.138 61.3274C58.1037 61.2234 58.1309 61.1454 58.1159 61.0525C58.1062 60.991 57.996 60.5533 57.9637 60.5162L57.9053 60.4493C57.9722 60.3177 57.8024 60.0768 57.772 59.9353C57.7576 59.8687 57.7247 59.5291 57.7151 59.4265C57.6839 59.0926 57.664 58.738 57.7499 58.4196L57.8619 58.3221L57.8883 58.1345C57.9943 58.0628 57.9651 58.1141 58.0493 58.0407C58.2398 57.8748 58.297 57.6883 58.3866 57.5171C58.4626 57.372 58.3653 57.4292 58.4855 57.2506C58.5657 57.1316 58.6066 57.1055 58.5005 56.9782L58.536 56.987L58.8192 55.8276L58.9303 55.6641C58.8248 55.5221 59.0147 55.2791 59.0108 55.0155C59.0077 54.7939 58.9045 54.5299 59.0164 54.3641L58.8923 54.2771L58.807 54.3497C58.589 54.5396 58.4969 54.6674 58.3605 54.8656C58.142 55.183 58.2443 55.0983 58.1686 55.3781L58.0345 55.4951C57.9835 55.6845 57.9654 55.7922 57.8747 55.9887C57.7967 56.1573 57.7063 56.309 57.8401 56.4912L57.7703 56.5465L57.7924 56.572L57.7032 56.65C57.5923 56.7464 57.7131 57.0395 57.3395 57.3609C57.1958 57.4845 56.9698 57.9315 56.933 58.069L56.6198 58.3417C56.603 58.4041 56.6195 58.4208 56.5693 58.4644C56.4636 58.5566 56.1251 58.537 56.025 58.427C55.9635 58.4571 55.9533 58.4803 55.8995 58.4185L55.8799 58.3961C55.7487 58.2453 55.6906 57.9729 55.6727 57.8139C55.6463 57.5826 55.4831 57.4825 55.7257 57.2708L55.6954 57.2716L55.6835 56.7208L55.7898 56.6687C55.6843 56.453 55.7827 56.4615 55.8204 56.3311C55.8595 56.1959 55.7061 56.1698 55.8538 56.0179C55.7419 55.807 55.8473 55.5017 55.8099 55.3418C55.8003 55.301 55.6832 54.662 55.6835 54.6603C55.6951 54.5135 55.6568 54.4582 55.6339 54.3205C55.6075 54.1637 55.6789 54.1303 55.6441 53.9846C55.6041 53.8159 55.5457 53.4516 55.4289 53.3179C55.3762 53.2575 55.3646 53.2654 55.309 53.2254C55.1605 53.355 54.8342 53.7311 54.6987 53.8984C54.5873 54.0356 54.5422 54.1104 54.4198 54.2368C54.3027 54.3579 54.303 54.5353 54.2489 54.5824L53.958 54.8358C53.9078 54.8795 53.8934 54.861 53.8296 54.869L53.4271 55.2199L53.0291 55.3319L53.0387 55.3613C52.8366 55.2154 52.6515 55.2933 52.4341 55.2879C52.2039 55.282 52.0529 55.2757 51.8105 55.4872C51.5123 55.5252 51.3609 55.6822 51.1441 55.699C51.0389 55.7069 50.5803 55.7009 50.5179 55.6295L50.4204 55.5175C50.7274 55.0923 51.5656 54.2442 52.0285 53.8408C51.9777 53.7099 52.408 53.3527 52.5319 53.2447C52.4888 53.12 52.9123 52.5984 53.0694 52.4615L53.0935 52.3155L53.7015 51.6111C53.7548 51.4782 53.8052 51.3557 53.9543 51.2185C54.1706 51.0195 54.002 50.9869 54.1896 50.8143C54.5261 50.5045 54.5955 50.2655 54.8546 50.0399L54.7962 49.9727L54.8631 49.9143C54.9246 49.8607 54.8541 49.7723 54.993 49.6076C55.0754 49.5098 55.1389 49.4341 55.2007 49.3275C55.3209 49.1206 55.4731 48.9468 55.5902 48.7447C55.8037 48.3756 56.2447 47.9306 56.3981 47.5805C56.4933 47.3631 56.6334 47.2035 56.7 46.9915C56.7657 46.7823 56.8216 46.6034 56.8873 46.3945C57.0364 45.9211 57.1195 45.6773 57.1753 45.1946C57.1907 45.0619 57.1694 45.0464 57.1949 44.8805C57.2145 44.7547 57.2408 44.6949 57.2578 44.5905C57.2754 44.4814 57.2768 44.3791 57.2678 44.2756C57.2527 44.1089 57.3244 44.1313 57.3145 43.9845C57.3018 43.7915 57.3871 43.6174 57.4032 43.3807C57.4152 43.2061 57.4075 42.926 57.4347 42.773C57.4954 42.4317 57.5121 42.5374 57.4874 42.1669C57.473 41.9453 57.4735 41.7636 57.4631 41.5552C57.4492 41.2783 57.4052 40.5948 57.181 40.3372L57.1223 40.27C57.0631 40.2022 57.0175 40.228 56.9551 40.2586C56.842 40.1345 56.7462 40.1699 56.6172 40.2773L56.5588 40.2102L56.5588 40.2103ZM68.7852 55.7308L68.8632 55.8204C68.97 55.9428 69.6036 55.2254 69.7331 55.1021C70.0483 54.8019 69.599 54.4972 69.3317 54.1995L69.2487 54.1854C69.2098 54.2865 69.114 54.468 69.0879 54.553C69.0466 54.6874 69.0244 54.8461 68.9862 54.9453C68.917 55.1239 68.8286 55.6665 68.7852 55.7308Z" fill-rule="evenodd"  fill="#003994" >
</path>
<path d="M166.613 16.3683L166.45 16.3275L166.436 16.382L166.327 16.3547C166.233 16.3312 166.272 16.3987 166.178 16.3751L166.097 16.3547C165.974 16.3244 165.609 15.6849 165.356 15.6217L165.22 15.5877C165.067 15.5497 164.904 15.9287 164.867 16.0769C164.62 16.1379 164.607 16.1708 164.429 16.3482C164.364 16.4131 164.124 16.742 164.1 16.8378L163.978 17.3267C163.912 17.5909 164.936 18.7636 165.046 19.061L165.391 19.1803L165.5 19.2075C165.692 19.2554 165.938 18.9507 166.061 18.8339C166.23 18.6735 166.378 18.3316 166.498 18.2151C166.551 18.1641 167.001 17.8443 167.054 17.8333C167.196 17.8035 167.625 17.6278 167.68 17.5291L167.789 17.5563C167.872 17.577 168.075 17.5342 168.169 17.5357C168.217 17.3939 168.587 17.3219 168.737 17.3282C168.867 17.3335 169.002 17.3883 169.123 17.3936C169.22 17.3982 169.324 17.3454 169.453 17.3656C169.908 17.437 169.821 17.3429 170.117 17.3174C170.161 17.3137 170.809 17.3576 170.842 17.3712L171.003 17.2865L171.429 17.4257L171.674 17.4869C171.619 17.6884 171.389 17.6618 171.245 17.7341C171.099 17.8069 171.128 17.7701 170.991 17.8115C170.873 17.8475 170.891 17.8911 170.766 17.9362C170.504 18.03 170.544 18.0198 170.328 18.1689C170.284 18.1992 169.914 18.3302 169.84 18.3568L169.807 18.4926C169.701 18.5309 169.478 18.684 169.316 18.7537C169.089 18.8521 168.969 18.7741 168.759 18.902C168.594 19.0023 168.449 19.1015 168.258 19.1454C168.113 19.1789 167.816 19.2639 167.715 19.3561L167.579 19.322C167.575 19.3257 166.855 19.6888 166.852 19.6894C166.733 19.7197 166.755 19.7129 166.657 19.7487C166.454 19.8229 166.6 19.7974 166.481 19.8785C166.391 19.9394 166.134 19.9083 166.098 20.0494L166.085 20.1038C166.061 20.1974 166.079 20.2141 166.065 20.3008L166.091 20.2841L166.193 20.4772C166.72 20.4854 166.737 20.5305 167.206 20.3938C167.329 20.3581 167.352 20.4157 167.458 20.3901C167.527 20.3734 167.573 20.3368 167.688 20.3113C167.857 20.2739 168.025 20.2861 168.18 20.2461C168.893 20.0625 169.367 20.0769 170.042 19.7691C170.219 19.6883 170.272 19.6625 170.471 19.5993C170.637 19.5463 170.812 19.5573 170.95 19.5123C171.264 19.4096 171.529 19.3359 171.851 19.243C172.147 19.1579 172.534 19.1392 172.796 19.0474C172.88 19.0182 172.904 18.9578 172.985 18.9385C173.044 18.9249 173.158 18.9141 173.238 18.8988C173.423 18.864 173.573 18.8569 173.699 18.7424C173.943 18.8033 173.988 18.7126 174.138 18.6278C174.218 18.5825 174.492 18.4558 174.514 18.3688L174.595 18.0425C174.619 17.9489 174.601 17.9325 174.616 17.8458C174.393 17.7848 174.555 17.7868 174.477 17.6286C174.441 17.5555 174.369 17.4937 174.315 17.4027C174.213 17.2304 174.159 17.1093 174.011 16.9614C173.87 16.8205 173.798 16.6617 173.57 16.6025C173.453 16.5719 173.332 16.5464 173.214 16.5157C173.04 16.4704 173.055 16.4171 172.903 16.3794L172.74 16.3386C172.707 16.3304 172.051 16.376 172.006 16.3865C171.878 16.4165 171.781 16.3936 171.656 16.4188C171.479 16.4542 171.524 16.4905 171.305 16.4888C170.765 16.4843 170.251 16.4168 169.741 16.4605C169.543 16.4775 169.195 16.467 168.984 16.4701C168.722 16.4738 168.464 16.3839 168.192 16.4211C168.052 16.4401 167.921 16.3839 167.808 16.3961C167.677 16.41 167.575 16.4361 167.431 16.4222C167.215 16.4015 166.752 16.4029 166.613 16.3683ZM165.607 28.4995C165.602 28.7926 165.488 28.9664 165.423 29.2314C165.347 29.5435 165.324 29.7156 165.109 29.823C164.94 29.9069 164.766 29.9982 164.565 30.0325C164.401 30.0603 164.043 30.0495 163.924 30.0818C163.763 30.126 163.445 30.1096 163.266 30.1005C163.005 30.0872 162.91 30.1351 162.613 30.1297C162.386 30.1257 162.132 30.1742 161.96 30.1572C161.853 30.1467 161.301 30.1368 161.301 30.1368L161.084 30.0824C160.993 30.06 161.016 30.0138 161.036 29.9262C161.249 29.9296 161.808 29.5931 162.072 29.4973C162.249 29.4327 162.402 29.4882 162.643 29.3706C162.847 29.2702 162.882 29.209 163.147 29.1719C163.16 29.1702 163.557 29.0219 163.685 28.9907C163.86 28.9482 164.052 28.8433 164.213 28.832C164.376 28.8207 164.589 28.7115 164.758 28.6622C164.914 28.6168 165.179 28.6265 165.289 28.525L165.607 28.4995ZM168.823 21.8548C168.624 21.9268 167.971 21.8732 167.656 21.8089L167.387 21.81L167.295 21.8488C166.949 21.7624 166.507 21.7743 166.236 21.8168C166.186 21.8245 165.743 21.8579 165.728 21.8562C165.54 21.8367 165.327 21.8194 165.148 21.7749C164.951 21.846 164.765 21.8233 164.487 21.7499L164.394 21.7888C164.348 21.7771 163.742 21.7034 163.721 21.706C163.554 21.7275 163.266 21.738 163.063 21.6873L162.981 21.6671L163.015 21.5311C163.041 21.4256 163.047 21.2505 162.947 21.2255L162.893 21.2122C162.81 21.1915 162.777 21.2108 162.72 21.2037L162.308 21.124C162.036 21.2221 162.067 21.1612 161.787 21.3335C161.597 21.4503 161.425 21.3715 161.263 21.5274L161.086 22.0889C161.141 22.2414 161.159 22.1547 161.176 22.3585C161.182 22.4433 161.217 22.5703 161.237 22.6431L162.95 23.0777L163.043 23.0388C163.522 23.1585 163.51 22.8957 164.06 23.0394L164.225 22.9297C164.293 22.9654 164.269 22.9697 164.327 22.9841C164.397 23.0017 164.892 22.8566 164.972 22.8277L164.971 22.8622L167.248 22.9626C167.021 23.0488 166.819 23.0624 166.739 23.3838L166.671 23.6557C166.634 23.8042 166.85 24.3192 166.902 24.4635L166.875 24.5724C166.896 24.6296 166.917 24.6336 166.902 24.6945L166.882 24.7759C166.95 24.8218 166.968 24.895 166.943 24.9933L166.862 25.3193C166.807 25.5364 166.58 25.4945 166.488 25.6592L166.383 25.634L166.325 25.7337C166.071 25.6705 165.469 25.5926 165.312 25.6614C165.125 25.7431 165.088 25.734 164.837 25.6785C164.638 25.6348 164.603 25.7371 164.346 25.668L164.219 25.7278C163.662 25.5886 163.548 25.7431 163.094 25.7006C162.845 25.6773 162.236 25.8117 162.182 26.0274L162.175 26.0546C162.125 26.2545 163.311 26.5688 163.588 26.6383L164.05 26.7534C164.276 26.8098 164.336 26.7383 164.614 26.8075C164.735 26.7641 164.983 26.6896 165.129 26.7502C165.243 26.7973 165.327 26.8072 165.444 26.8404C165.571 26.8764 165.684 26.9878 165.694 26.9906C165.74 27.002 165.805 26.9796 165.844 26.9702C165.877 26.9988 165.882 27.0085 165.945 27.0243L166.027 27.0448C165.932 27.3234 165.587 27.3829 165.356 27.4654C165.305 27.4836 165.061 27.5981 164.993 27.6307C164.811 27.7168 164.839 27.801 164.685 27.8869C164.56 27.9569 164.445 27.966 164.309 28.0301C164.174 28.0933 164.079 28.1205 163.937 28.1792C163.803 28.2342 163.698 28.3357 163.589 28.37C163.411 28.4258 163.361 28.4513 163.194 28.5202C162.971 28.6126 162.65 28.711 162.457 28.8309C162.258 28.9536 161.903 29.0293 161.699 29.1461C161.495 29.2626 161.205 29.4261 160.954 29.4443C160.757 29.4582 160.286 29.5982 160.227 29.8111C160.112 29.8131 160.031 29.9032 159.996 30.0421L159.993 30.1294L159.834 30.5787C159.778 30.7357 159.849 31.1408 159.936 31.2338C160.029 31.3339 160.322 31.6091 160.48 31.5768C160.497 31.6261 160.495 31.6675 160.568 31.6856L160.867 31.7602C161.297 31.8673 162.407 31.786 162.647 31.5691L162.809 31.61C162.931 31.4997 163.435 31.5122 163.62 31.4985C163.767 31.4878 163.925 31.4291 164.019 31.4308C164.111 31.4322 164.189 31.4739 164.28 31.4813C164.318 31.4844 164.494 31.4529 164.494 31.4529C164.596 31.4787 164.541 31.4838 164.665 31.5224L164.555 32.3645L164.63 32.4105L164.441 33.1713C164.358 33.5024 164.151 34.4313 164.005 34.7539C163.973 34.8267 163.751 35.4682 163.742 35.507C163.659 35.8407 163.557 36.0184 163.484 36.3095C163.41 36.6054 163.428 36.8475 163.378 37.0896C163.314 37.3923 163.213 37.5851 163.172 37.9043L162.816 39.5515L162.851 39.6436L162.773 40.0858L162.678 40.4662L162.733 40.4796C162.662 40.7616 162.489 41.4139 162.563 41.6208L162.514 41.8124L162.658 41.9332L162.638 42.0145C162.63 42.0488 162.667 42.2458 162.618 42.4425C162.645 42.5157 162.711 42.8119 162.781 42.8295L162.863 42.8499C162.9 42.8592 163.113 42.77 163.175 42.7546C163.249 42.4868 163.299 42.7274 163.467 42.5491C163.558 42.4533 163.641 42.4006 163.738 42.3065C163.797 42.2487 164.155 41.7211 164.173 41.6471C164.196 41.555 164.132 41.4643 164.159 41.3552L164.187 41.2466C164.211 41.1488 164.471 40.8007 164.492 40.7168L164.533 40.5535C164.648 40.5416 164.695 40.3676 164.729 40.2276L164.736 40.2003L164.705 40.1935L164.971 38.9902L165.01 39.003L165.102 38.9642C165.147 38.7844 165.259 38.6858 165.259 38.6858C165.295 38.5401 165.251 38.4848 165.292 38.319L165.381 37.9658C165.398 37.8966 165.615 37.5219 165.671 37.3725C165.714 37.2577 165.717 37.1089 165.78 37.0159C165.873 36.8781 165.895 36.9521 165.951 36.7237C166.078 36.2083 166.235 35.6745 166.357 35.2071C166.611 34.228 166.941 33.2175 167.191 32.2126C167.243 32.0048 167.311 31.6176 167.439 31.5484C167.529 31.5003 167.95 31.5348 168.128 31.5808C168.561 31.6922 169.08 31.6808 169.576 31.7987C169.669 31.8206 170.167 31.8826 170.279 31.8926C170.477 31.9104 170.838 31.9671 171.022 32.0142C171.542 32.1468 171.927 32.0201 172.2 31.7602L172.306 31.2667C172.103 30.7023 171.974 30.6785 171.606 30.2547C171.536 30.1736 171.236 29.8499 171.205 29.7796C171.114 29.5784 170.762 29.5582 170.804 29.3045C170.717 29.2751 170.663 29.1288 170.404 29.0134C170.277 28.9576 169.943 28.8184 169.907 28.9652L169.9 28.9924C169.878 29.0809 169.951 29.1163 170.002 29.1622C169.915 29.512 170.381 29.8394 170.315 30.1059L170.308 30.1331C170.292 30.1977 169.936 30.3001 169.921 30.2964L169.812 30.2692L169.799 30.3236L169.553 30.2751L168.467 30.1067L168.413 30.0931C168.294 30.0637 168.301 30.1229 168.182 30.0934L168.019 30.0526C167.958 30.0373 167.965 30.0163 167.924 29.9712C167.647 29.9021 167.739 29.9503 167.761 29.7232C167.782 29.5225 167.855 29.4191 167.897 29.2728C167.966 29.0358 168.053 28.5006 168.15 28.3484C168.276 28.152 168.226 28.2342 168.33 27.9935C168.364 27.9139 168.558 27.9187 168.671 27.8699C168.867 27.7863 169.144 27.7537 169.363 27.6749C169.614 27.7378 169.769 27.7985 169.913 27.6681L170.072 27.7013L170.212 27.6273L170.375 27.6678C170.471 27.6332 170.813 27.4175 170.843 27.2942L170.85 27.267C170.9 27.0677 170.883 26.9027 170.868 26.748C170.836 26.4115 170.71 26.4951 170.71 26.3265L169.505 25.95C169.439 25.9735 169.414 26.0138 169.348 25.9976L169.131 25.9432C169.183 25.7366 169.233 24.9083 169.141 24.8051C168.988 24.633 169.111 24.7779 169.056 24.5792C169.017 24.4374 168.954 24.5542 168.879 24.3853C168.793 24.1894 168.64 24.2104 168.729 23.8946L167.954 23.0235C168.034 23.0434 168.579 23.1344 168.697 23.1448C168.79 23.1531 168.964 23.203 169.058 23.2075C169.137 23.2115 169.33 23.1315 169.371 23.1346L170.033 23.3691C170.263 23.286 170.292 23.318 170.604 23.396C170.662 23.375 170.795 23.3226 170.814 23.2463L170.882 22.9748C170.906 22.877 170.819 22.5788 170.776 22.5071C170.666 22.3237 170.608 22.3137 170.391 22.2069C170.242 22.1329 170.126 22.0178 169.959 21.9347C169.794 21.8525 169.799 21.6944 169.543 21.6306L169.244 21.556C168.968 21.4869 169.153 21.9373 168.823 21.8548ZM155.129 22.0164C155.365 22.1471 155.369 22.6757 155.279 23.0351L155.311 23.038L155.211 24.1151L155.096 24.5769C155.038 24.8085 154.981 24.9811 154.92 25.1677C154.886 25.2683 154.871 25.3933 154.839 25.4945C154.796 25.6294 154.71 25.6603 154.696 25.7181L154.669 25.8267L154.615 25.8131C154.525 26.1703 154.477 26.4115 154.297 26.6017L153.889 27.7965L153.834 27.7829C153.714 28.2665 153.532 28.7569 153.4 29.2909C153.324 29.5979 153.238 29.7014 153.226 30.0194C153.218 30.2147 153.141 30.5591 153.083 30.7975L153.177 30.8803C153.035 31.4495 153.077 31.6811 153.062 32.1732C153.054 32.4686 153.239 33.0599 153.171 33.332L153.199 33.4542C153.344 33.4939 153.401 33.7481 153.444 33.8612C153.507 34.0248 153.568 34.1611 153.681 34.2963C153.876 34.5296 154.092 34.8604 154.497 34.9614L154.578 34.9818C154.771 35.0297 155.122 35.0966 155.207 34.9888C155.335 34.8244 155.457 34.6997 155.522 34.4381L155.543 34.3564C155.586 34.1827 155.544 34.0015 155.582 33.8468C155.594 33.7997 155.77 33.4505 155.807 33.3731C155.972 33.0247 155.984 32.5785 156.118 32.2509L156.55 31.0382L156.662 30.7973C157.101 30.3993 157.182 29.5775 157.441 29.3147L157.721 28.6426L157.809 28.6305C157.911 28.2566 158.443 27.824 158.575 27.2922L158.623 27.102C158.639 27.0365 158.599 27.011 158.575 26.9458C158.199 27.0813 157.892 27.4515 157.632 27.7976C157.471 28.0111 157.369 28.1026 157.211 28.2889C157.046 28.4825 156.95 28.6602 156.803 28.8414C156.502 29.2141 155.542 31.0277 155.127 30.9339C155.055 31.0734 154.996 31.1459 154.821 31.1173C154.843 30.9792 154.752 30.6201 154.765 30.3888C154.775 30.1912 154.743 29.8108 154.793 29.6095C154.888 29.2286 155.068 28.9794 155.153 28.6319C155.248 28.241 155.345 27.9178 155.45 27.5502C155.497 27.3875 155.612 27.2568 155.665 27.138C155.741 26.9645 155.738 26.7553 155.818 26.5853C155.854 26.5073 156.273 25.7958 156.296 25.7709L156.408 25.4525L156.504 25.1002L156.589 24.5128L156.55 24.4202C156.661 23.974 156.607 23.163 156.482 22.8673C156.397 22.6695 155.809 21.8401 155.591 21.7854L155.482 21.7584C155.366 21.7292 155.169 21.8979 155.129 22.0164ZM159.262 14.595L159.262 14.7072C159.241 14.7254 159.191 14.7608 159.187 14.7753C159.171 14.8393 159.21 14.9094 159.228 14.9584C159.138 15.3209 159.25 15.563 159.229 15.6512C159.197 15.7768 158.617 16.2306 158.51 16.378C158.372 16.5676 158.368 16.6776 158.195 16.8151C158.123 16.8721 157.874 17.1439 157.85 17.2411L157.735 17.7029C157.99 17.7443 158.379 17.6677 158.591 17.6283C158.836 17.583 159.17 17.4072 159.365 17.3783C159.666 17.3341 159.85 17.1924 160.12 17.0974C160.257 17.0495 160.779 16.8397 160.812 16.7102L160.818 16.683C160.904 16.3423 160.755 15.692 160.61 15.4686C160.469 15.2526 160.402 15.2195 160.198 15.046C160.14 14.9969 159.712 14.6752 159.676 14.6664L159.514 14.6194L159.262 14.595Z" fill-rule="evenodd"  fill="#003994" >
</path>
<path d="M218.175 41.9771L217.906 42.23C217.851 42.2815 217.867 42.4831 217.891 42.5579L216.682 43.9636L216.659 43.9438L215.848 44.738L213.901 46.2824L212.64 47.4448L211.977 48.1991L211.804 48.3616C211.387 48.753 211.028 48.9257 210.612 48.9123C210.435 48.907 210.207 48.7956 210.04 48.7122C209.795 48.5895 209.664 48.5634 209.451 48.4752C209.113 48.3355 208.648 47.8131 208.308 47.4511C207.938 47.0574 207.496 46.7019 207.149 46.3334L206.987 46.1608C206.848 46.0125 206.966 45.8399 206.762 45.6128C206.734 45.6219 206.636 45.659 206.611 45.6828C206.522 45.7659 206.308 46.1488 206.289 46.2509C206.241 46.5131 206.416 46.6194 206.485 46.8482L206.693 46.9885L206.853 47.9772L206.818 47.9829C206.906 48.018 207.041 48.5093 207.11 48.6632C207.23 48.9279 207.359 49.1343 207.517 49.403C207.664 49.6519 207.839 49.8753 207.985 50.1261C208.083 50.2937 208.499 50.7217 208.369 50.8654C208.471 50.9938 208.354 51.2416 208.223 51.3643L208.108 51.4726C207.824 51.7393 207.096 52.2147 206.793 52.3831C206.395 52.6045 205.891 52.8103 205.468 53.0172C205.066 53.2145 204.555 53.524 204.158 53.7585C203.738 54.0068 203.259 54.1854 202.835 54.3415C201.723 54.7511 201.309 54.6148 200.244 54.3061C199.776 54.1703 199.404 54.144 198.948 54.0184C198.747 53.9634 198.494 53.8733 198.302 53.7837C198.055 53.668 197.798 53.3063 197.666 53.255C197.621 53.4503 197.427 53.8857 197.585 54.0544L197.653 54.136L197.947 54.4014L197.87 54.4736C197.933 54.4711 197.95 54.4425 198 54.4963L198.145 54.65C198.428 54.9513 198.57 55.3067 198.714 55.6185C198.941 56.1109 199.179 56.1546 199.508 56.5526L200.472 57.7431C200.61 57.9138 201.404 57.994 201.601 58.0107C202.012 58.0453 202.338 57.9537 202.745 57.814C203.679 57.4925 204.185 56.8202 205.091 56.1498C205.291 56.0012 205.482 55.8187 205.665 55.6829C205.888 55.5168 206.058 55.3685 206.257 55.2294C206.599 54.9895 207.118 54.5403 207.444 54.2307C207.833 53.8619 208.225 53.4963 208.616 53.1292C209.092 52.6819 209.404 52.5486 209.796 52.2382L210.018 52.427C210.285 52.6487 210.45 53.2329 210.567 53.3576L210.693 53.4923C210.8 53.606 211.569 53.8758 211.742 53.9404C212.086 54.0697 212.462 54.2911 212.808 54.4345C213.514 54.7273 214.232 54.962 214.946 55.2217C215.148 55.2951 215.289 55.4079 215.479 55.4799C215.636 55.5395 215.854 55.6047 216.014 55.6523C216.346 55.7504 216.75 55.8765 217.083 56.0729C217.314 56.2093 217.381 56.2555 217.612 56.438C217.839 56.6169 217.933 56.6481 218.142 56.7924C218.316 56.9128 218.469 56.954 218.671 57.1711C218.794 57.3035 219.092 57.6436 219.2 57.5419L219.258 57.4877C219.61 57.1569 219.717 56.8417 219.767 56.4964C219.792 56.3232 219.841 56.1727 219.906 55.9975C219.971 55.8243 220.126 55.6415 220.163 55.502C220.269 55.1024 220.268 54.9017 220.109 54.4935C219.917 54.0037 219.956 53.9594 219.557 53.4577L218.424 54.3291C218.251 54.2701 218.282 54.3342 218.092 54.214C217.985 54.1471 217.875 54.0895 217.744 54.0059C217.538 53.8738 217.242 53.6051 217.053 53.4441C216.618 53.0733 216.109 52.787 215.665 52.5019C215.171 52.1844 214.747 51.9712 214.273 51.7152C214.044 51.5922 213.809 51.4346 213.578 51.2671C213.347 51.0996 212.99 50.9709 212.882 50.8563L212.557 50.5105C212.331 50.2693 212.97 49.7953 213.279 49.5076C213.521 49.2808 214.032 48.708 214.197 48.4733C214.439 48.126 214.757 47.7754 215.018 47.4358C215.285 47.088 215.593 46.7538 215.967 46.4025L215.985 46.3827L217.98 44.6561L219.651 43.086C219.871 42.8794 219.364 42.3538 219.141 42.1191C218.797 41.7563 218.544 41.631 218.175 41.9771ZM210.623 66.5056L210.315 66.7944C209.788 67.2894 209.212 67.3134 208.712 66.7817C208.408 66.458 208.164 65.9242 207.986 65.5843C207.88 65.3828 207.722 65.1858 207.655 64.9774C207.584 64.7557 207.793 64.6069 207.873 64.3875C208.168 63.5816 208.346 62.8466 208.587 62.0416C208.822 61.2569 209.044 60.4814 209.228 59.6934C209.324 59.2772 209.395 58.9226 209.408 58.5056C209.418 58.2043 209.389 57.5861 209.66 57.3199L209.637 57.3006L209.809 57.0951C209.931 57.2238 209.992 57.2111 210.107 57.3338L210.558 57.814C210.835 58.1088 211.175 58.617 211.344 58.9201C211.608 59.3909 211.645 59.5434 211.693 60.0123C211.765 60.7067 211.858 61.514 211.849 62.1989C211.838 62.9813 211.843 63.5672 211.78 64.3597C211.751 64.7223 211.665 65.0769 211.501 65.4327C211.45 65.5432 210.756 66.3803 210.623 66.5056Z" fill-rule="evenodd"  fill="#003994" >
</path>
<path d="M110.576 32.5723C110.934 32.5 111.11 32.2466 111.397 32.1885C111.455 32.1769 111.504 32.3124 111.518 32.3821C111.605 32.8127 111.324 32.9062 111.4 33.2776C111.199 33.4794 111.213 33.7787 111.122 33.8408C110.81 34.0528 111.323 34.0517 110.573 34.1813C110.374 34.2156 110.098 34.1311 109.836 34.1651C109.419 34.2195 109.375 34.0951 109.098 34.1509L108.895 34.0792C108.857 33.8771 108.905 33.6724 108.993 33.5381C109.031 33.4808 109.311 33.2214 109.37 33.1991C109.564 33.1262 109.584 33.0352 109.846 32.9258C110.16 32.7945 110.146 32.932 110.383 32.6931L110.566 32.6559L110.576 32.5723ZM100.028 19.1676C99.9816 19.239 98.9943 20.1926 98.8781 20.2263L98.8993 20.3309L98.9779 20.315C99.0167 20.3074 99.0819 20.2354 99.1187 20.205C99.3912 20.213 99.8736 20.0642 100.064 20.0786C100.19 20.088 100.639 20.3145 100.669 20.4638L100.701 20.6209C100.718 20.7079 100.521 20.933 100.482 21.0191C100.447 21.0928 100.348 21.4324 100.285 21.4775L100.446 21.653C100.733 21.5217 101.594 21.95 102.048 21.4928C102.32 21.4378 102.398 21.4619 102.532 21.2933C102.595 21.2133 102.854 21.0517 102.872 20.9976C102.885 20.9565 103.006 20.0361 103.003 20.0197C102.917 19.597 102.728 19.334 102.528 19.063C102.445 18.9501 101.707 18.8968 101.503 18.9334C101.454 18.8345 101.317 18.8076 101.184 18.8345L100.893 18.883L100.028 19.1676ZM113.296 33.9023C113.227 33.5616 113.384 33.597 113.376 33.3666C113.369 33.154 113.41 33.0103 113.487 32.8512C113.581 32.6571 113.597 32.5958 113.626 32.354C113.639 32.2424 113.731 32.0031 113.769 31.8826C113.826 31.7026 113.76 31.5252 113.796 31.3112C113.841 31.0391 113.862 31.2125 113.934 31.1082C113.938 31.1017 113.963 30.9257 113.985 30.8701C114.114 30.5339 114.121 30.6955 114.409 30.5631C114.581 30.4843 114.652 30.3871 114.917 30.3335L115.048 30.3071C115.072 30.3023 115.458 30.4523 115.472 30.5212L115.483 30.5733C115.547 30.8928 115.512 31.0439 115.496 31.2845C115.474 31.6046 115.474 31.6097 115.553 32.0028L115.469 32.1511C115.53 32.426 115.616 32.8665 115.581 33.1313C115.557 33.309 115.591 33.4437 115.574 33.6024C115.562 33.7113 115.528 33.9386 115.526 34.0239L115.395 34.0503C115.432 34.2337 115.386 34.2975 115.207 34.3335L114.998 34.3757C114.746 34.4267 114.673 34.3241 114.526 34.336C114.379 34.3479 114.155 34.3672 114.037 34.3559C113.858 34.3386 113.707 34.3692 113.524 34.3768C113.335 34.3851 113.255 34.3321 113.082 34.327C113.087 34.1444 113.168 34.0069 113.296 33.9023ZM109.866 30.9452C109.806 30.9574 109.784 30.9427 109.772 30.8826L109.746 30.7516C109.734 30.6949 109.89 30.433 109.913 30.2964C109.957 30.0285 109.962 30.0665 110.047 29.8411C110.09 29.7246 110.177 29.4933 110.205 29.402C110.254 29.2405 110.242 29.0681 110.311 28.9287C110.379 28.7906 110.387 28.6081 110.442 28.4496C110.483 28.3334 110.55 28.1001 110.59 28.004C110.7 27.7415 110.818 27.388 110.827 27.074L110.759 27.0059C110.927 26.9574 110.931 26.6442 111.088 26.6128L111.167 26.5969C111.341 26.5614 111.637 26.6819 111.735 26.799C111.892 26.9869 111.861 27.2015 111.917 27.4802L111.922 27.5065C111.956 27.6738 112.015 27.695 112.048 27.8623C112.062 27.9283 112.02 28.1202 112.002 28.171C111.932 28.3694 111.974 28.2424 111.97 28.4672C111.966 28.6693 111.988 28.9352 111.852 29.046C111.919 29.3771 111.953 29.6688 111.839 29.8984C111.738 30.1019 111.41 30.1705 111.242 30.3403C110.854 30.4188 110.83 30.5728 110.593 30.6799C110.495 30.7247 109.934 30.9316 109.866 30.9452ZM112.621 26.1124L112.281 26.3205L112.167 26.3075L111.967 26.5167C112.244 26.7911 112.714 26.5796 113.124 26.7191C113.21 26.7483 113.284 26.7871 113.371 26.8259C113.526 26.8948 113.597 26.7806 113.654 26.9115C113.71 27.0408 113.714 27.0808 113.79 27.1842C113.817 27.2211 113.994 27.3815 113.995 27.3875C114.018 27.5017 113.962 27.4929 113.985 27.6074L113.995 27.6596C114.064 28.0009 114.235 28.1718 114.295 28.4706L114.332 28.6149L114.657 28.3705L114.911 28.3084L115.462 27.9082C115.387 27.5368 115.409 27.3801 115.34 27.0337C115.312 26.8942 115.166 26.242 115.115 26.1096C115.011 25.8429 114.847 25.6535 114.597 25.6266C114.528 25.6189 113.813 25.5724 113.794 25.5866L113.609 25.613L113.217 25.6923C113.018 25.7323 112.731 26.0016 112.621 26.1124ZM106.932 16.012L106.985 16.4097L107.038 16.6717C107.138 17.1671 107.488 17.2808 107.595 17.812L107.6 17.8381C107.678 18.2253 107.43 19.0995 107.341 19.4337C107.245 19.7957 106.861 20.5134 106.947 20.9392L106.973 21.0699C106.991 21.1609 107.276 21.564 107.336 21.6499C107.402 21.7448 107.435 21.8596 107.512 21.9651C107.584 22.0631 107.699 22.1014 107.745 22.1944C107.981 22.1465 108.116 22.3866 108.343 22.348L108.389 22.4144L108.682 22.3863C108.867 22.4625 109.286 22.564 109.551 22.5105C109.896 22.4407 109.886 22.07 110.1 21.8548C110.121 21.8761 110.265 21.9965 110.268 22.0116C110.289 22.1156 110.172 22.4288 110.138 22.5374C110.069 22.7582 110.061 22.869 110.028 23.0989C110.003 23.2752 109.967 23.4745 109.908 23.6307C109.872 23.7254 109.851 24.0559 109.812 24.2013C109.715 24.5576 109.612 24.8896 109.515 25.251C109.413 25.6328 109.368 25.9795 108.879 26.0742L108.815 26.1456C108.717 26.1428 108.682 26.1181 108.569 26.1408L108.229 26.2094L108.255 26.3403C108.27 26.4126 108.288 26.3993 108.35 26.403C108.383 26.5521 108.454 26.5303 108.55 26.5799C108.624 26.619 108.707 26.7395 108.795 26.7216L109.031 26.674L109.063 26.831C109.092 26.9779 108.972 27.2471 108.891 27.3288C108.933 27.536 108.726 28.2591 108.668 28.4726C108.641 28.574 108.624 28.6409 108.596 28.7419C108.551 28.8986 108.506 28.832 108.476 29.0024C108.453 29.1313 108.491 29.1787 108.456 29.306C108.423 29.425 108.402 29.476 108.398 29.6076C108.265 29.6495 108.296 29.9457 108.253 30.1002C108.213 30.2451 108.16 30.4409 108.112 30.5963C108.052 30.7927 108.004 30.8744 107.962 31.0853C107.928 31.2511 107.86 31.4209 107.815 31.5774C107.732 31.8705 107.626 32.2747 107.357 32.4516C107.167 32.5768 106.612 32.9371 106.384 32.9833C106.254 33.114 104.563 34.1634 104.374 34.2065L104.031 31.8515L104.02 31.799C103.973 31.5663 103.907 31.4248 103.846 31.2083C103.773 30.9452 103.664 30.8922 103.584 30.7159C103.183 30.8321 103.377 31.9841 103.467 32.4283C103.477 32.4802 103.424 32.9289 103.425 33.08C103.426 33.313 103.409 33.5361 103.405 33.7694C103.396 34.2073 103.333 34.6495 103.312 35.1127C103.303 35.3126 103.306 35.5864 103.279 35.7704C103.267 35.8477 103.213 36.4002 103.215 36.4308C103.23 36.7177 103.23 36.8725 103.189 37.1157C103.167 37.2413 103.085 37.6279 103.1 37.7594C102.886 37.7532 102.777 37.3739 102.727 37.1265L102.588 36.5L102.343 34.6175L102.297 34.624L101.614 29.997L101.556 29.709C101.544 29.6509 101.316 29.467 101.257 29.4426L101.231 29.3119C101.14 29.2745 101.066 29.266 101.007 29.1705C100.882 28.9686 100.938 29.1138 100.793 28.9814C100.588 28.7951 100.548 28.7614 100.491 28.4808C100.478 28.4179 100.433 28.4122 100.387 28.3671L100.313 28.4077C100.127 28.2234 99.1553 27.7146 98.8458 27.7506L98.818 27.752L98.8631 28.6684L98.8957 28.6679L98.956 28.601L99.0414 28.8552C99.0728 28.946 99.0295 29.4604 99.0292 29.5721C99.0278 29.8443 99.0785 30.086 99.1012 30.3675C99.1227 30.6397 99.1919 30.89 99.2409 31.1856C99.2778 31.407 99.2245 31.6519 99.288 31.9651C99.5113 33.0678 99.8886 34.1277 100.111 35.1978L100.196 35.2689L100.29 35.5759C100.321 35.6711 100.277 35.7823 100.306 35.9268L100.444 36.6071C100.517 36.9688 100.695 37.1758 100.786 37.6276C100.898 38.1832 100.929 38.2425 101.12 38.66C101.281 39.0121 101.369 39.2482 101.572 39.5158C101.812 39.8316 102.003 39.6414 102.346 39.9197C102.799 40.2879 103.182 40.7718 103.641 41.0754C103.764 41.157 103.864 41.2225 103.987 41.3047C104.224 41.4637 104.052 41.4048 104.362 41.5241C104.556 41.5987 105.012 41.813 105.244 41.7662L105.361 41.743L105.079 40.1383L105.057 40.0334C105.018 39.8369 104.918 39.7485 104.873 39.526L104.82 39.2643C104.768 39.0072 104.825 38.4032 104.867 38.1849C104.876 38.1398 104.849 37.0913 104.845 37.0519L104.663 36.4631L104.574 36.0975L104.567 35.5838C104.684 35.5909 105.139 35.9042 105.332 35.865C105.564 35.8183 105.641 35.7208 105.865 35.6757C106.028 35.5113 106.217 35.0929 106.471 35.0356L106.556 35.4543C106.666 35.9994 107.147 36.261 107.678 36.1539L107.756 36.138C107.811 36.127 107.908 35.9983 108.023 35.9753C108.186 35.9421 108.401 35.9759 108.546 35.9725C108.734 35.9679 108.907 35.9404 109.099 35.9234C109.233 35.9118 109.473 35.9265 109.608 35.943C109.845 35.9716 109.903 36.0705 110.08 36.0499C110.123 36.144 110.288 36.6619 110.39 36.6412C110.528 36.6131 111.017 36.1876 111.504 36.0893L111.53 36.0839C111.595 36.0708 112.034 36.1346 112.177 36.1343C112.278 36.134 112.836 36.0912 112.893 36.0805L112.931 36.1295L113.621 36.0734L113.692 36.1343L114.064 36.0895C114.343 36.2043 114.589 36.0941 114.732 36.4147C114.997 37.0054 114.702 36.9209 114.757 37.2299C114.642 37.2872 114.471 37.9797 114.365 38.1475C114.208 38.3961 113.857 38.6648 113.457 38.7456L113.038 38.8301C112.759 38.8865 112.345 38.7241 112.101 38.7742C111.715 38.8533 111.413 38.6954 111.118 38.7323L110.677 38.7348L110.698 38.8397L110.751 38.8292L110.809 39.1169C110.811 39.126 110.967 39.3553 110.993 39.3848C111.008 39.4013 111.228 39.5458 111.26 39.5637C111.421 39.653 111.742 39.723 111.852 39.8324C112.103 39.7817 112.241 39.8891 112.437 39.9415C112.697 40.011 112.789 39.9872 113.038 40.0246C113.265 40.0586 113.419 40.0473 113.641 40.1071C113.826 40.1573 114.043 40.1797 114.282 40.1315C114.815 40.024 114.799 39.5095 115.202 39.4282C115.268 39.266 115.562 39.077 115.711 38.9279C115.951 38.6875 115.94 38.6223 116.062 38.3227C116.136 38.1427 116.603 37.1296 116.747 37.1004C117.304 36.9881 117.554 37.0936 117.973 37.1982C118.351 37.2923 118.736 37.3989 119.111 37.4635C119.47 37.5256 119.828 37.7129 120.162 37.8266C120.415 37.9134 120.462 37.9499 120.732 37.8209C120.852 37.7634 121.219 37.5667 121.302 37.5423L121.286 37.4638C121.257 37.3209 121.204 37.3294 121.176 37.1865L121.144 37.0295C121.234 36.9884 121.266 36.9623 121.243 36.8461L121.185 36.5581C121.139 36.3305 120.854 36.0544 120.702 35.954C120.522 35.8341 120.242 35.7293 120.033 35.6309C119.799 35.5203 119.588 35.426 119.359 35.3154C119.214 35.2457 118.737 35.0872 118.664 34.9974C118.312 35.0685 117.296 34.8304 117.239 34.5495L117.223 34.471C117.128 33.9981 117.118 33.5931 117.133 33.1877C117.148 32.8011 117.109 32.36 117.13 31.962C117.146 31.6613 117.147 31.0391 117.121 30.7321C117.108 30.5906 117.081 30.2383 117.092 30.1008C117.104 29.9287 117.141 29.6416 117.145 29.5021C117.323 29.4505 117.193 29.3978 117.354 29.2555C117.458 29.1645 117.552 29.1262 117.626 29.0508C118.017 28.972 118.491 28.8221 118.898 28.7396C119.364 28.6452 119.72 28.6812 120.139 28.6477C120.519 28.6171 120.777 28.1877 120.666 27.8872C120.6 27.7112 120.606 27.3614 120.495 27.2542C120.41 27.1715 120.184 27.0635 120.01 27.0986C119.854 26.9444 119.734 26.9475 119.668 26.623C119.565 26.5802 119.533 26.5223 119.416 26.4903C119.252 26.4452 119.235 26.547 119.087 26.5768C118.989 26.5966 118.927 26.5674 118.863 26.5476L117.303 26.8015L116.844 25.1776C116.589 24.9244 116.607 24.6792 116.22 24.5131C115.992 24.4153 115.714 24.0896 115.549 23.8989L114.721 23.972L114.276 24.0619C113.784 24.1614 113.314 24.366 112.933 24.552C112.77 24.6313 112.491 24.7779 112.305 24.8147C112.151 24.8448 111.617 25.0509 111.587 24.9046C111.566 24.7983 111.6 24.7555 111.65 24.7008L111.618 24.3813L111.712 24.3076L111.691 24.203C111.645 23.976 111.788 23.6216 111.829 23.3886C111.856 23.2381 112.035 22.7593 112.114 22.6485C112.335 22.3398 112.569 21.475 112.784 21.2581C112.728 20.9786 112.97 20.4925 113.063 20.2648C113.102 20.1693 113.277 19.8465 113.278 19.8187C113.284 19.6854 113.365 19.2773 113.361 19.2622C113.353 19.2189 113.068 18.7752 113.017 18.6885C112.862 18.4229 112.825 18.3574 112.585 18.2131C112.428 18.1185 111.395 18.1065 111.124 18.1615L111.019 18.1825C110.723 18.2423 110.775 18.6556 110.513 18.7752C110.539 18.9243 110.45 19.0255 110.352 19.0992C110.127 19.269 110.281 19.2342 110.109 19.3909C109.948 19.5378 109.634 19.7152 109.352 19.7722C109.455 19.5236 109.435 18.8328 109.36 18.4631C109.278 18.055 109.069 17.5855 108.868 17.3276C108.68 17.0866 108.33 16.7173 108.231 16.376C107.976 16.3686 107.771 16.3573 107.592 16.2127C107.516 16.1512 107.116 15.9205 107.026 15.9386C106.984 15.9471 106.949 15.9868 106.932 16.012Z" fill-rule="evenodd"  fill="#003994" >
</path>
</g>
<defs>
<clipPath id="clip-path-wJKCJV27RY2ODT-KyNMrO">
<path d="M0 271.181L271.181 271.181L271.181 0L0 0L0 271.181Z" fill="white"/>
</clipPath>
<linearGradient id="linear_fill_63Iz-erpmJyt8mBElwQ-a" x1="154.67510986328125" y1="109.41171264648438" x2="154.67510986328125" y2="194.9258041381836" gradientUnits="userSpaceOnUse">
<stop offset="0" stop-color="#003A95"  />
<stop offset="0.05" stop-color="#003D96"  />
<stop offset="0.13" stop-color="#006FBC"  />
<stop offset="0.25" stop-color="#FFF100"  />
<stop offset="0.44" stop-color="#FFF100"  />
<stop offset="0.63" stop-color="#E60013"  />
<stop offset="1" stop-color="#E60013"  />
</linearGradient>
<linearGradient id="linear_fill_Ox2GcI408GnPLI5l2Ilc7" x1="128.95480346679688" y1="142.65798950195312" x2="128.04849243164062" y2="71.7239990234375" gradientUnits="userSpaceOnUse">
<stop offset="0" stop-color="#153390"  />
<stop offset="0.09" stop-color="#004098"  />
<stop offset="0.2" stop-color="#008CD6"  />
<stop offset="0.32" stop-color="#FFF100"  />
<stop offset="0.58" stop-color="#FFED00"  />
<stop offset="0.63" stop-color="#FED600"  />
<stop offset="0.69" stop-color="#F08300"  />
<stop offset="0.74" stop-color="#E9450B"  />
<stop offset="1" stop-color="#E60013"  />
</linearGradient>
</defs>
</svg>
